<svg width="339" height="339" viewBox="0 0 339 339" fill="none" xmlns="http://www.w3.org/2000/svg">
<circle cx="170" cy="170" r="163" fill="#4F749B"/>
<path d="M122.756 161V134.818H125.927V158.187H138.097V161H122.756Z" fill="white"/>
<path d="M164.078 147.909C164.078 150.67 163.579 153.057 162.582 155.068C161.585 157.08 160.217 158.631 158.478 159.722C156.74 160.812 154.754 161.358 152.521 161.358C150.288 161.358 148.302 160.812 146.564 159.722C144.825 158.631 143.457 157.08 142.46 155.068C141.463 153.057 140.964 150.67 140.964 147.909C140.964 145.148 141.463 142.761 142.46 140.75C143.457 138.739 144.825 137.187 146.564 136.097C148.302 135.006 150.288 134.46 152.521 134.46C154.754 134.46 156.74 135.006 158.478 136.097C160.217 137.187 161.585 138.739 162.582 140.75C163.579 142.761 164.078 145.148 164.078 147.909ZM161.01 147.909C161.01 145.642 160.63 143.729 159.872 142.169C159.122 140.609 158.103 139.429 156.816 138.628C155.538 137.827 154.106 137.426 152.521 137.426C150.936 137.426 149.5 137.827 148.213 138.628C146.934 139.429 145.916 140.609 145.157 142.169C144.407 143.729 144.032 145.642 144.032 147.909C144.032 150.176 144.407 152.089 145.157 153.649C145.916 155.209 146.934 156.389 148.213 157.19C149.5 157.991 150.936 158.392 152.521 158.392C154.106 158.392 155.538 157.991 156.816 157.19C158.103 156.389 159.122 155.209 159.872 153.649C160.63 152.089 161.01 150.176 161.01 147.909Z" fill="white"/>
<path d="M187.306 143C187.025 142.139 186.654 141.368 186.194 140.686C185.742 139.996 185.201 139.408 184.571 138.922C183.948 138.436 183.241 138.065 182.448 137.81C181.656 137.554 180.787 137.426 179.841 137.426C178.289 137.426 176.879 137.827 175.609 138.628C174.339 139.429 173.329 140.609 172.579 142.169C171.829 143.729 171.454 145.642 171.454 147.909C171.454 150.176 171.833 152.089 172.592 153.649C173.35 155.209 174.377 156.389 175.673 157.19C176.968 157.991 178.426 158.392 180.045 158.392C181.545 158.392 182.866 158.072 184.008 157.433C185.159 156.785 186.054 155.874 186.693 154.697C187.341 153.513 187.664 152.119 187.664 150.517L188.636 150.722H180.761V147.909H190.733V150.722C190.733 152.878 190.272 154.753 189.352 156.347C188.44 157.94 187.179 159.176 185.568 160.054C183.966 160.923 182.125 161.358 180.045 161.358C177.727 161.358 175.69 160.812 173.934 159.722C172.187 158.631 170.823 157.08 169.843 155.068C168.872 153.057 168.386 150.67 168.386 147.909C168.386 145.838 168.663 143.976 169.217 142.322C169.779 140.66 170.572 139.246 171.595 138.078C172.617 136.91 173.828 136.016 175.225 135.393C176.623 134.771 178.162 134.46 179.841 134.46C181.221 134.46 182.508 134.669 183.701 135.087C184.903 135.496 185.973 136.08 186.91 136.838C187.856 137.588 188.644 138.487 189.275 139.535C189.906 140.575 190.341 141.73 190.579 143H187.306Z" fill="white"/>
<path d="M218.254 147.909C218.254 150.67 217.755 153.057 216.758 155.068C215.761 157.08 214.393 158.631 212.654 159.722C210.915 160.812 208.93 161.358 206.697 161.358C204.464 161.358 202.478 160.812 200.739 159.722C199.001 158.631 197.633 157.08 196.636 155.068C195.638 153.057 195.14 150.67 195.14 147.909C195.14 145.148 195.638 142.761 196.636 140.75C197.633 138.739 199.001 137.187 200.739 136.097C202.478 135.006 204.464 134.46 206.697 134.46C208.93 134.46 210.915 135.006 212.654 136.097C214.393 137.187 215.761 138.739 216.758 140.75C217.755 142.761 218.254 145.148 218.254 147.909ZM215.185 147.909C215.185 145.642 214.806 143.729 214.048 142.169C213.298 140.609 212.279 139.429 210.992 138.628C209.714 137.827 208.282 137.426 206.697 137.426C205.111 137.426 203.675 137.827 202.388 138.628C201.11 139.429 200.092 140.609 199.333 142.169C198.583 143.729 198.208 145.642 198.208 147.909C198.208 150.176 198.583 152.089 199.333 153.649C200.092 155.209 201.11 156.389 202.388 157.19C203.675 157.991 205.111 158.392 206.697 158.392C208.282 158.392 209.714 157.991 210.992 157.19C212.279 156.389 213.298 155.209 214.048 153.649C214.806 152.089 215.185 150.176 215.185 147.909Z" fill="white"/>
<path d="M43.022 205V178.818H51.8686C53.9225 178.818 55.6015 179.189 56.9055 179.93C58.218 180.663 59.1896 181.656 59.8203 182.909C60.451 184.162 60.7663 185.56 60.7663 187.102C60.7663 188.645 60.451 190.047 59.8203 191.308C59.1981 192.57 58.235 193.575 56.9311 194.325C55.6271 195.067 53.9566 195.437 51.9197 195.437H45.5788V192.625H51.8174C53.2237 192.625 54.3529 192.382 55.2052 191.896C56.0575 191.41 56.6754 190.754 57.0589 189.928C57.4509 189.092 57.647 188.151 57.647 187.102C57.647 186.054 57.4509 185.116 57.0589 184.29C56.6754 183.463 56.0532 182.815 55.1924 182.347C54.3316 181.869 53.1896 181.631 51.7663 181.631H46.1924V205H43.022Z" fill="white"/>
<path d="M65.8735 205V178.818H69.044V202.187H81.2144V205H65.8735Z" fill="white"/>
<path d="M88.8497 205H85.5259L95.1395 178.818H98.4122L108.026 205H104.702L96.8782 182.96H96.6736L88.8497 205ZM90.077 194.773H103.475V197.585H90.077V194.773Z" fill="white"/>
<path d="M131.942 187H128.771C128.584 186.088 128.256 185.287 127.787 184.597C127.327 183.906 126.764 183.327 126.099 182.858C125.443 182.381 124.714 182.023 123.913 181.784C123.112 181.545 122.277 181.426 121.408 181.426C119.822 181.426 118.386 181.827 117.099 182.628C115.821 183.429 114.803 184.609 114.044 186.169C113.294 187.729 112.919 189.642 112.919 191.909C112.919 194.176 113.294 196.089 114.044 197.649C114.803 199.209 115.821 200.389 117.099 201.19C118.386 201.991 119.822 202.392 121.408 202.392C122.277 202.392 123.112 202.273 123.913 202.034C124.714 201.795 125.443 201.442 126.099 200.973C126.764 200.496 127.327 199.912 127.787 199.222C128.256 198.523 128.584 197.722 128.771 196.818H131.942C131.703 198.156 131.268 199.354 130.638 200.41C130.007 201.467 129.223 202.366 128.285 203.108C127.348 203.841 126.295 204.399 125.128 204.783C123.969 205.166 122.729 205.358 121.408 205.358C119.175 205.358 117.189 204.812 115.45 203.722C113.712 202.631 112.344 201.08 111.347 199.068C110.349 197.057 109.851 194.67 109.851 191.909C109.851 189.148 110.349 186.761 111.347 184.75C112.344 182.739 113.712 181.187 115.45 180.097C117.189 179.006 119.175 178.46 121.408 178.46C122.729 178.46 123.969 178.652 125.128 179.035C126.295 179.419 127.348 179.982 128.285 180.723C129.223 181.456 130.007 182.351 130.638 183.408C131.268 184.456 131.703 185.653 131.942 187Z" fill="white"/>
<path d="M137.065 205V178.818H152.866V181.631H140.235V190.477H152.048V193.29H140.235V202.187H153.071V205H137.065Z" fill="white"/>
<path d="M158.581 205V178.818H161.751V190.477H175.711V178.818H178.882V205H175.711V193.29H161.751V205H158.581Z" fill="white"/>
<path d="M207.32 191.909C207.32 194.67 206.821 197.057 205.824 199.068C204.827 201.08 203.459 202.631 201.72 203.722C199.982 204.812 197.996 205.358 195.763 205.358C193.53 205.358 191.544 204.812 189.806 203.722C188.067 202.631 186.699 201.08 185.702 199.068C184.705 197.057 184.206 194.67 184.206 191.909C184.206 189.148 184.705 186.761 185.702 184.75C186.699 182.739 188.067 181.187 189.806 180.097C191.544 179.006 193.53 178.46 195.763 178.46C197.996 178.46 199.982 179.006 201.72 180.097C203.459 181.187 204.827 182.739 205.824 184.75C206.821 186.761 207.32 189.148 207.32 191.909ZM204.252 191.909C204.252 189.642 203.872 187.729 203.114 186.169C202.364 184.609 201.345 183.429 200.059 182.628C198.78 181.827 197.348 181.426 195.763 181.426C194.178 181.426 192.742 181.827 191.455 182.628C190.176 183.429 189.158 184.609 188.399 186.169C187.649 187.729 187.274 189.642 187.274 191.909C187.274 194.176 187.649 196.089 188.399 197.649C189.158 199.209 190.176 200.389 191.455 201.19C192.742 201.991 194.178 202.392 195.763 202.392C197.348 202.392 198.78 201.991 200.059 201.19C201.345 200.389 202.364 199.209 203.114 197.649C203.872 196.089 204.252 194.176 204.252 191.909Z" fill="white"/>
<path d="M212.651 205V178.818H215.821V202.187H227.992V205H212.651Z" fill="white"/>
<path d="M240.98 205H232.901V178.818H241.338C243.878 178.818 246.051 179.342 247.858 180.391C249.665 181.43 251.05 182.926 252.013 184.878C252.976 186.821 253.458 189.148 253.458 191.858C253.458 194.585 252.972 196.933 252 198.902C251.029 200.862 249.614 202.371 247.756 203.428C245.898 204.476 243.64 205 240.98 205ZM236.071 202.187H240.776C242.941 202.187 244.735 201.77 246.158 200.935C247.581 200.099 248.642 198.91 249.341 197.368C250.04 195.825 250.39 193.989 250.39 191.858C250.39 189.744 250.044 187.925 249.354 186.399C248.664 184.865 247.632 183.689 246.26 182.871C244.888 182.044 243.179 181.631 241.134 181.631H236.071V202.187Z" fill="white"/>
<path d="M258.776 205V178.818H274.577V181.631H261.946V190.477H273.759V193.29H261.946V202.187H274.782V205H258.776Z" fill="white"/>
<path d="M280.292 205V178.818H289.138C291.184 178.818 292.863 179.168 294.175 179.866C295.488 180.557 296.459 181.507 297.09 182.717C297.72 183.928 298.036 185.304 298.036 186.847C298.036 188.389 297.72 189.757 297.09 190.95C296.459 192.143 295.492 193.081 294.188 193.763C292.884 194.436 291.218 194.773 289.189 194.773H282.03V191.909H289.087C290.485 191.909 291.61 191.705 292.462 191.295C293.323 190.886 293.945 190.307 294.328 189.557C294.72 188.798 294.917 187.895 294.917 186.847C294.917 185.798 294.72 184.882 294.328 184.098C293.936 183.314 293.31 182.709 292.449 182.283C291.588 181.848 290.451 181.631 289.036 181.631H283.462V205H280.292ZM292.615 193.239L299.059 205H295.377L289.036 193.239H292.615Z" fill="white"/>
</svg>
