<svg width="48" height="48" viewBox="0 0 48 48" fill="none" xmlns="http://www.w3.org/2000/svg">
<path d="M16.7603 8.94116V5.86631C16.7603 5.73704 17.8147 3.75178 17.9183 3.63174C17.9748 3.56711 18.0218 3.50247 18.1066 3.46554L25.591 3.43783C25.7133 3.47477 25.7604 3.53941 25.8357 3.63174C25.9393 3.76102 26.9937 5.74628 26.9937 5.86631V8.94116C28.0104 8.88576 29.0178 9.02426 29.9969 9.29204L32.1622 3.3178C32.5105 2.39442 33.4237 1.87733 34.4122 2.05277C34.8358 2.12664 36.5775 2.7453 36.9447 2.94844C37.6696 3.35473 38.1026 4.24117 37.9049 5.04451L35.043 12.7916C35.8338 14.149 36.3798 15.5433 36.5398 17.1223V28.2859C37.3777 28.4613 38.2344 28.5721 39.0535 28.8584C48.3266 32.0163 46.4531 45.9409 35.5137 46.0055C26.9278 46.0517 18.276 45.9593 9.66189 46.0055C8.63573 46.0055 7.23299 44.7959 7.23299 43.7986V41.8503H5.24656C4.25806 41.8503 3.02478 40.5206 3.00595 39.5511V30.2989C2.94946 30.1142 3.23189 29.7356 3.39194 29.7356H7.23299V17.1407C7.3742 15.5618 7.94848 14.1767 8.72987 12.8101L5.8585 5.04451C5.55724 3.27163 7.03529 2.79147 8.4192 2.35748C9.53009 2.0066 10.3303 1.72035 11.2435 2.69913C12.2885 4.77673 12.8816 7.05747 13.8042 9.1997L13.8889 9.25511C14.821 8.98733 15.7906 8.89499 16.7603 8.93193V8.94116ZM12.7875 9.62446L10.368 3.30856C10.1609 3.10542 9.87842 3.03155 9.59599 3.06848C9.31356 3.10542 7.44952 3.78872 7.23299 3.95492C6.94115 4.17654 6.79993 4.50895 6.92232 4.86907L9.53009 11.8313L10.6316 10.8341C11.3094 10.3632 11.9966 9.883 12.7875 9.61522V9.62446ZM34.1486 11.8775C34.2522 11.9514 34.4593 11.3327 34.5063 11.2311C35.2312 9.42132 36.0221 7.36219 36.6246 5.51543C36.8505 4.83213 37.1706 4.25964 36.3327 3.80718C36.0503 3.65944 34.1957 3.03155 33.9321 3.04078C33.5461 3.05925 33.3013 3.35473 33.1601 3.67791L30.9666 9.57829C32.1151 10.1415 33.4237 10.8248 34.1486 11.8775ZM18.1066 6.26912H25.591L25.1579 4.49048L25.0167 4.43508H18.6714L18.1066 6.26912ZM23.8211 6.51268H19.9424V8.93193H23.8211V6.51268ZM10.801 24.1769H19.2269V21.7946C19.2269 21.5268 19.6599 21.4252 19.8859 21.3975C20.8179 21.3144 23.0397 21.2959 23.9529 21.3975C24.1506 21.4252 24.5271 21.573 24.5271 21.7853V24.1676H32.953C34.2333 24.1676 35.3819 22.524 35.476 21.3606C35.8808 16.3559 34.7699 11.0188 28.8672 10.0861C24.8849 9.97534 19.7635 9.97534 15.6588 9.97534C11.6483 10.317 8.53217 13.4103 8.2874 17.3716C8.2215 18.415 8.1556 21.4252 8.4851 22.2932C8.8146 23.1612 9.85959 24.0476 10.801 24.1769ZM23.4727 22.4409H20.2907V25.5619H23.4727V22.4409ZM19.2363 25.2111H10.8104C10.5657 25.2111 9.6054 24.8694 9.35122 24.7401C8.92757 24.5278 8.65456 24.1953 8.29681 23.9183V43.6971C8.29681 43.7525 8.551 44.2511 8.60748 44.3434C9.10644 45.036 10.0008 44.9805 10.7634 44.9528V37.9814C10.7634 36.0238 13.2205 33.8539 15.2164 33.8631H27.6527C28.9048 30.6959 32.0115 28.5629 35.476 28.3228V23.9091C35.2312 24.0476 35.0806 24.3061 34.8547 24.4631C34.4781 24.7309 33.4143 25.2018 32.9624 25.2018H24.5366C24.5271 25.8297 24.7343 26.6238 23.8305 26.5869C23.6516 27.3164 24.2918 29.237 23.2562 29.357C22.8608 29.4032 20.479 29.4032 20.2342 29.2924C20.1212 29.237 20.0271 29.1354 19.9894 29.0154C19.8576 28.6183 20.0365 26.6792 19.9424 26.5869C19.048 26.6238 19.2551 25.8205 19.2363 25.2018V25.2111ZM22.7667 26.5961H20.9968V28.3321H22.7667V26.5961ZM35.3819 29.3663C33.7061 29.5694 32.021 30.1511 30.7971 31.3146L33.4896 33.9554C34.6099 32.7181 35.3819 31.0376 35.3819 29.3663ZM36.5398 29.3663C36.3139 31.3238 35.6361 33.2352 34.2427 34.6849L35.975 36.3654L41.2094 31.3053C39.9573 30.1327 38.2533 29.5232 36.5398 29.357V29.3663ZM7.23299 30.7513H4.05094V32.4873H7.23299V30.7513ZM28.0575 36.5501C29.7803 36.5501 31.4561 35.7837 32.7364 34.6941L30.0439 32.0533C28.8577 33.2537 28.274 34.9065 28.0575 36.5501ZM43.9489 36.6332C43.7795 34.9527 43.1581 33.2814 41.9625 32.0533L36.8034 37.1872L38.5169 38.8863C39.9949 37.5289 41.9437 36.8456 43.9395 36.6332H43.9489ZM7.23299 33.5214H4.05094V39.5419C4.05094 39.9758 4.88882 40.7977 5.33129 40.7977H7.23299V33.5214ZM27.2667 34.9065H15.0469C13.6912 34.9065 11.8272 36.7348 11.8272 38.0645V44.9436H31.682L29.8274 43.6047C28.1705 42.0165 27.182 39.9481 27.0031 37.6766H18.9727C19.161 38.6093 19.6411 39.588 19.0103 40.4375C18.3325 41.3609 16.9674 41.3609 16.2896 40.4375C15.6588 39.5788 16.139 38.6 16.3272 37.6766H13.9925C13.6253 37.6766 13.277 36.7348 14.1714 36.6332H26.956L27.2761 34.9065H27.2667ZM28.0575 37.6859C28.227 39.3664 28.8483 41.0377 30.0439 42.2658L35.203 37.1319L33.4896 35.4328C32.0115 36.7902 30.0628 37.4735 28.0669 37.6859H28.0575ZM18.1519 37.6766H17.1818C17.1253 38.2676 16.5438 40.0405 17.6076 40.1051C18.7561 40.179 18.2555 38.2399 18.1519 37.6766ZM43.9489 37.769C42.2355 37.769 40.5409 38.5354 39.27 39.625L41.9625 42.2658C43.1487 41.0654 43.7324 39.4126 43.9489 37.769ZM35.4666 44.9528C35.6831 42.9953 36.3704 41.0839 37.7637 39.6342L36.0315 37.9537L30.7971 43.0138C32.0492 44.1864 33.7626 44.7959 35.4666 44.9621V44.9528ZM36.6246 44.9528C38.3003 44.7497 39.9855 44.1587 41.2094 43.0045L38.5169 40.3637C37.406 41.6195 36.6152 43.2631 36.6152 44.9528H36.6246Z" fill="black" stroke="black" stroke-width="1.5"/>
<path d="M18.9856 14.947C19.1797 15.7683 19.6746 16.6472 19.0244 17.4028C18.3257 18.2242 16.9185 18.2242 16.2198 17.4028C15.5696 16.639 16.0645 15.7683 16.2586 14.947H12.3962C12.0177 14.947 11.6587 14.1092 12.5806 14.0188H31.3298C32.3876 14.101 31.9606 14.947 31.6016 14.947H19.005H18.9856ZM17.8793 14.9634L17.3358 14.9962C17.2776 15.5219 16.4818 17.0496 17.5785 17.1071C18.7624 17.1728 17.986 15.4644 17.8793 14.9634Z" fill="black" stroke="black" stroke-width="1.5"/>
</svg>
