<svg width="500" height="500" viewBox="0 0 500 500" fill="none" xmlns="http://www.w3.org/2000/svg">
<g clip-path="url(#clip0_1_2)">
<path d="M492.51 241.568C492.51 240.971 492.51 240.27 492.406 239.672V239.569C492.406 238.874 492.309 238.271 492.309 237.57V237.375C491.906 228.976 491.01 220.681 489.609 212.484L489.511 212.082C488.609 206.584 487.512 201.087 486.214 195.687L486.116 195.09C485.714 193.487 485.312 191.89 484.916 190.488L484.715 189.787C478.522 166.701 468.832 144.809 455.844 124.715C442.96 104.822 427.175 87.0311 408.897 71.9346L408.696 71.7335C406.995 70.3378 405.301 68.936 403.6 67.6378L403.003 67.1381C399.706 64.5356 396.311 62.0368 392.813 59.7391C389.418 57.4414 386.023 55.1437 382.525 53.0411C365.643 42.7471 347.56 34.5498 328.685 28.9488C309.2 23.1527 289.026 19.8555 268.548 19.3557C266.549 19.2521 264.453 19.2521 262.252 19.2521C250.368 19.2521 238.477 20.1541 226.891 21.9521H226.69C206.809 25.0543 187.434 30.7528 169.053 38.8465H168.955C165.853 40.2483 162.86 41.644 159.959 43.0458C157.064 44.5451 154.169 46.0444 151.372 47.5437C151.268 47.6412 151.171 47.6412 151.073 47.7448C149.47 48.6407 147.874 49.5427 146.374 50.3411C145.478 50.8409 144.576 51.3406 143.778 51.8404C134.288 57.5389 125 64.0359 116.407 71.1362L115.108 72.5319H114.81C113.609 73.5314 112.512 74.4334 111.311 75.4329C110.117 76.4325 108.916 77.5295 107.819 78.529C105.522 80.6317 103.224 82.7283 101.024 84.9285C98.9271 87.0311 96.8305 89.1277 94.8315 91.2243L94.734 91.3279C89.0354 97.4226 83.5441 103.822 78.5465 110.423C74.3533 116.017 70.2577 121.813 66.5643 127.713C64.7664 130.614 62.8649 133.71 61.1644 136.709C60.7683 137.41 60.366 138.208 59.8663 139.007C58.3731 141.707 56.8738 144.51 55.5756 147.308C54.9722 148.405 54.4725 149.605 53.8752 150.806C52.2784 154.201 50.6755 157.705 49.1823 161.301L48.8776 162.002C47.4819 165.397 46.1837 168.797 44.983 172.198V172.296C43.1851 177.397 41.4908 182.596 40.089 187.788L39.9915 188.093C39.7904 188.69 39.6929 189.391 39.4917 189.989C36.7918 199.984 34.7927 210.18 33.4946 220.48C33.3971 220.876 33.3971 221.181 33.3971 221.577C32.6962 227.575 32.1964 233.675 31.8978 239.672C31.8002 241.269 31.8002 242.97 31.6966 244.871C31.6966 246.468 31.5991 248.071 31.5991 249.668C31.5991 277.655 36.5907 305.044 46.3848 331.038C55.8742 356.13 69.5568 379.216 87.0425 399.713C88.0359 400.81 89.0354 402.011 89.9374 403.01C93.5333 407.008 97.3303 411.006 101.127 414.803C103.12 416.705 105.223 418.704 107.319 420.703L107.417 420.8C109.617 422.806 112.012 424.902 114.31 426.804L114.712 427.102C134.989 443.893 157.662 457.088 182.235 466.084C207.711 475.482 234.485 480.181 261.85 480.181C290.721 480.181 318.89 474.885 345.561 464.487C358.451 459.489 370.939 453.194 382.622 445.996C394.215 438.798 405.301 430.497 415.589 421.3C431.374 407.106 444.959 391.016 456.143 373.42C460.439 366.625 464.438 359.628 468.033 352.327C470.331 347.731 472.428 343.13 474.427 338.437C481.32 322.042 486.214 304.849 489.109 287.053C489.712 283.457 490.212 279.855 490.608 276.259C491.108 272.261 491.406 268.263 491.705 264.265V264.161C491.809 262.765 491.906 261.461 491.906 260.163V260.065C492.01 258.664 492.01 257.365 492.01 255.964C492.01 255.165 492.01 254.464 492.107 253.666C492.107 252.867 492.107 252.069 492.107 251.265C492.107 250.667 492.107 250.07 492.107 249.369C492.705 247.071 492.607 244.371 492.51 241.568Z" fill="#62D3ED"/>
<path d="M112.012 429.303C109.812 427.401 107.521 425.499 105.418 423.5C103.321 421.404 101.024 419.301 99.0246 417.503C95.1301 413.706 91.3331 409.708 87.7373 405.71C85.5432 402.309 84.0439 398.415 83.2455 393.813C82.4471 389.413 81.9473 384.817 81.4476 380.417C81.1428 377.217 80.7467 373.92 80.2469 370.623C79.3449 364.723 78.2478 358.629 74.3533 353.728C72.4579 351.327 70.2577 349.328 68.0575 347.329C65.5648 345.135 63.1635 343.032 61.3656 340.332C58.9704 336.834 57.5686 332.836 56.1729 328.539C55.3745 326.339 54.6736 324.041 53.6741 321.841C52.6745 319.44 51.2789 317.343 49.9807 315.344C49.5784 314.741 49.2798 314.143 48.8776 313.546C47.2807 310.944 47.2807 309.048 47.9816 305.446C48.4814 303.045 47.9816 301.046 47.4819 299.151C47.2807 298.249 46.9821 297.353 46.8846 296.353C46.781 295.951 46.781 295.652 46.781 295.354C46.9821 291.752 47.9816 289.253 48.6825 287.351L48.78 286.955C49.6821 284.657 51.48 278.855 49.4809 273.961C48.1828 270.762 45.7815 268.964 41.3872 265.764C39.3881 264.265 37.9924 263.564 36.9929 262.96C35.6948 262.266 34.9939 261.863 34.0979 260.663C32.3975 258.664 31.8002 256.567 30.6971 252.764C29.8012 249.668 29.5026 247.267 29.1003 244.469C29.0028 243.969 29.0028 243.47 28.8992 242.97C28.7041 241.97 28.6005 240.77 28.3994 239.569C28.3994 238.972 28.503 238.374 28.503 237.771C28.7041 237.972 28.8992 238.173 29.1003 238.271C30.0023 238.972 31.0994 239.069 31.6966 239.069C32.1964 239.069 32.6962 239.069 33.0984 238.972C33.4946 238.972 33.8968 238.874 34.1955 238.874C34.8963 238.874 35.4936 239.069 35.7923 239.27C36.1945 239.673 36.097 240.672 35.8959 242.372C35.6948 244.073 35.3961 246.169 35.8959 248.467C36.8954 253.069 40.6863 257.268 45.1842 258.664C46.5799 259.163 48.2803 259.364 49.8771 259.364C51.8761 259.364 54.6736 258.962 56.7702 257.067C57.0688 256.768 57.4711 256.463 57.7697 256.067C58.8667 254.964 60.0674 253.763 61.9689 252.868C62.164 252.764 62.4687 252.666 62.7673 252.666C63.1635 252.569 63.4621 252.569 63.7669 252.569C65.065 252.569 66.2596 252.965 67.8625 253.568C70.0566 254.263 70.9586 255.068 71.8545 255.769C72.854 256.463 73.8536 257.268 75.8526 257.768C77.3519 258.164 79.1499 258.365 81.1489 258.365C82.9468 258.365 84.5437 258.164 85.5432 258.066C86.0429 257.963 86.4391 257.963 86.8413 257.963C88.6393 257.963 90.035 258.664 91.4367 260.163C93.7344 262.662 95.7274 264.563 98.4273 266.361C99.7255 267.263 100.926 268.36 102.121 269.561C103.12 270.56 104.223 271.657 105.418 272.657C108.618 275.058 112.311 275.759 115.907 276.46C118.704 276.96 121.404 277.46 123.702 278.758C125.5 279.757 126.999 281.354 128.395 283.853C128.694 284.255 128.895 284.755 129.193 285.255C130.491 287.351 131.893 289.655 131.692 291.752C131.595 292.952 130.894 293.952 130.095 295.152C129.492 296.048 128.797 297.048 128.297 298.249C127.499 300.449 127.395 303.85 131.692 307.348C133.289 308.646 134.788 309.243 136.19 309.243C137.787 309.243 139.286 308.445 140.779 306.848C142.279 305.245 143.278 304.648 144.68 304.648C145.18 304.648 145.679 304.745 146.179 304.849C148.672 305.446 150.47 307.147 152.67 309.347C155.565 312.242 158.362 312.443 161.958 312.742C165.054 313.046 168.151 313.345 171.052 314.143C174.148 315.045 176.744 316.545 179.639 318.641C182.138 320.439 184.533 321.439 187.83 322.341C190.53 323.042 192.426 323.938 193.127 326.04C194.126 329.039 193.127 333.135 189.829 338.534C188.33 340.936 186.435 343.233 183.936 345.732C181.541 348.03 178.743 350.632 177.744 354.429C177.043 357.026 177.043 359.628 177.043 362.224C177.043 362.627 177.043 362.925 177.043 363.328C177.043 367.021 176.647 370.026 175.647 373.024L175.543 373.323C173.745 378.82 171.746 385.116 166.158 386.518C164.555 386.914 162.958 387.219 161.16 387.517C156.168 388.316 151.073 389.218 147.075 392.613C144.278 395.014 144.479 398.11 144.68 400.81C144.68 401.212 144.68 401.511 144.777 401.913C144.777 402.711 144.777 403.412 144.576 404.107C143.882 406.411 142.279 407.807 141.584 408.41L141.48 408.507C138.884 410.805 138.384 413.505 137.988 416.205C137.586 418.405 137.287 420.502 135.587 422.501C131.991 427.7 123.202 428.401 112.012 429.303Z" fill="#95BE46"/>
<path d="M39.6929 187.094C38.8884 187.094 37.9924 186.789 36.9929 186.289C38.3886 181.194 39.9915 176.093 41.7894 171.199V171.095C43.3862 166.396 44.7819 163.001 45.5864 161.203L45.7815 160.801L45.8851 160.6C45.9826 160.399 46.0862 160.204 46.0862 160.003C47.5794 156.401 49.1823 152.805 50.7791 149.404C51.3764 148.204 51.8761 147.009 52.4734 145.906C53.8752 143.011 55.3745 140.207 56.8738 137.41C57.3735 136.611 57.7697 135.813 58.1719 135.112C59.8663 132.01 61.7678 128.914 63.6633 125.915C67.4602 119.918 71.4584 114.018 75.749 108.32C80.5455 102.024 85.7382 95.8258 91.1381 90.0298C91.2356 90.2248 91.3331 90.5295 91.4367 90.8282C91.7354 91.7241 92.2351 92.8272 93.3322 93.6256C94.0331 94.0279 94.734 94.3265 95.4287 94.3265C98.1287 94.3265 100.128 91.5291 101.523 89.4264C101.822 89.0302 102.121 88.628 102.322 88.3293C103.224 87.2262 104.223 86.7264 105.223 86.7264C106.521 86.7264 107.618 87.8296 108.215 89.53C109.319 92.9247 110.013 93.6256 111.513 94.424C112.311 94.8263 113.012 95.0274 113.908 95.0274C114.712 95.0274 115.407 94.8263 116.108 94.7288C116.809 94.5276 117.607 94.424 118.406 94.424C118.503 94.424 118.503 94.424 118.607 94.424C120.502 94.5276 122.002 95.1249 122.8 96.1244C123.099 96.5267 123.598 97.4226 123.598 98.2271C123.598 99.0255 122.702 101.025 116.01 103.621C110.214 105.925 104.918 106.723 100.926 107.223C96.3308 107.924 93.2347 108.32 92.7349 110.819C92.4363 112.019 93.0335 112.818 93.4297 113.519C93.8319 114.116 94.2342 114.817 94.3317 116.115C94.4292 117.121 94.2342 117.815 94.0331 118.516C93.8319 119.418 93.5333 120.515 94.2342 121.716C95.0326 123.215 96.5319 123.514 97.6289 123.813C98.3298 124.014 98.8296 124.117 98.9271 124.312C99.0246 124.513 99.2257 125.312 97.8301 127.415C96.4283 129.511 93.9295 131.01 91.6318 131.01C91.2356 131.01 90.8334 130.913 90.4372 130.815C90.1386 130.712 90.1386 130.712 90.035 130.614C89.7363 130.413 89.4377 130.212 88.8404 130.114C88.3406 130.011 87.8409 129.913 87.2375 129.913C83.7452 129.913 80.6491 132.51 78.7476 134.009C78.0467 134.612 76.9497 135.612 75.749 136.91C75.0542 137.708 74.5545 138.409 74.0547 139.007C73.1527 140.311 72.2568 141.505 70.1602 143.309C69.9591 143.511 69.6604 143.706 69.4593 143.907C68.3623 144.906 67.2591 145.906 66.3632 147.106C65.6623 148.106 65.1625 149.106 64.6628 150.203C64.3641 150.806 64.0655 151.403 63.7669 151.903C63.066 153.104 62.164 154.103 61.1644 155.304C59.6712 157.004 58.0683 158.802 57.2699 161.203C56.8738 162.398 56.569 163.599 56.374 164.702C55.7706 167.298 55.2709 169.596 53.2779 171.796C53.0768 171.997 52.6745 172.497 51.8761 173.594C50.578 175.197 48.4814 177.897 45.2817 181.791C42.4842 185.192 41.2897 186.691 39.6929 186.789C39.9915 187.094 39.8879 187.094 39.6929 187.094Z" fill="#95BE46"/>
<path d="M159.161 68.735C156.467 68.735 154.566 68.3388 153.066 67.5343C152.17 67.0345 151.573 66.2361 150.872 65.3341C150.275 64.6393 149.671 63.8348 148.873 63.2376C148.276 62.7378 147.672 62.4392 147.075 62.0369C146.076 61.4396 145.18 60.9399 144.875 60.239C144.777 59.9403 144.777 59.7392 144.875 59.5381C145.18 58.9408 146.179 57.8377 149.47 56.6431C149.97 56.442 150.574 56.2409 150.97 56.1433C152.268 55.7411 153.566 55.3388 154.066 53.9432C154.669 52.2427 153.67 49.945 151.768 48.8419C151.073 48.4458 150.275 48.2446 149.373 48.2446C148.776 48.2446 148.172 48.3421 147.575 48.4458C147.075 48.5433 146.575 48.6408 146.179 48.6408C145.679 48.6408 145.277 48.5433 144.875 48.3421C144.777 48.3421 144.576 48.141 144.479 48.0435C144.576 47.946 144.68 47.7449 144.979 47.4462C146.478 46.5442 148.075 45.6422 149.671 44.7463C152.573 43.1434 155.468 41.6441 158.466 40.1448C161.361 38.6455 164.457 37.2498 167.553 35.848C186.331 27.5532 206.114 21.751 226.391 18.5574C238.178 16.7534 250.264 15.8575 262.35 15.8575C264.252 15.8575 266.049 15.8575 267.847 15.955C268.146 16.6559 268.244 17.4543 268.049 18.0577C267.744 19.752 266.251 20.5565 263.155 22.0558C260.656 23.2503 257.657 24.7496 254.561 27.4496C251.965 29.6498 250.666 31.5513 249.667 33.1481C248.466 34.946 247.57 36.3478 244.974 37.5485C243.073 38.4444 240.976 38.8466 236.783 39.645C233.882 40.1448 232.285 40.2484 230.286 40.4434C228.787 40.547 227.092 40.6446 224.593 40.9432C223.795 41.0468 222.997 41.1443 222.198 41.2479C218.298 41.6441 213.903 42.0463 210.509 44.1429C209.107 45.0449 208.01 46.0445 207.01 47.1415C205.712 48.4458 204.414 49.6403 202.714 50.2437C200.617 50.9446 198.423 51.0421 196.125 51.1396C194.827 51.1396 193.529 51.2432 192.225 51.4443C185.935 52.2427 182.54 56.3384 179.243 60.3365C177.841 62.0369 176.342 63.8348 174.745 65.3341C172.149 67.6379 169.15 68.6374 164.36 68.9361C163.957 68.9361 163.458 69.0336 162.958 69.0336C161.562 68.6374 160.362 68.735 159.161 68.735Z" fill="#95BE46"/>
<path d="M405.002 417.802C404.301 417.802 403.399 417.607 402.802 416.108C402.406 415.206 402.302 414.206 402.205 413.109C402.101 412.506 402.101 412.006 402.004 411.409C401.601 409.306 400.907 407.209 399.706 404.808C399.407 404.211 399.109 403.607 398.706 403.01C397.408 400.712 396.311 398.512 395.811 396.013C395.513 394.215 395.312 392.314 395.208 390.412C395.111 388.718 395.013 386.914 394.708 385.116C394.215 382.02 392.91 379.32 391.612 376.62C391.314 376.023 391.015 375.419 390.716 374.822C388.918 371.025 388.315 367.423 389.016 364.022C389.619 360.829 391.015 357.928 392.514 354.825C394.013 351.729 395.61 348.432 396.311 344.83C397.006 340.936 396.311 337.133 395.61 333.634C395.513 333.037 395.312 332.44 395.208 331.836C394.513 328.637 393.812 325.242 392.715 322.042C391.515 318.544 389.516 315.74 387.12 312.443C384.622 309.243 382.726 306.549 382.622 303.246C382.525 300.851 383.323 298.547 384.219 296.152C385.219 293.251 386.322 290.252 385.822 286.955C385.322 283.658 382.921 280.958 379.429 280.153C378.63 279.958 377.826 279.855 376.93 279.855C376.028 279.855 375.132 279.958 374.23 280.056C373.432 280.153 372.633 280.257 371.835 280.257C370.939 280.257 370.238 280.153 369.635 279.958C368.337 279.459 367.837 278.459 367.142 276.759C366.941 276.259 366.74 275.857 366.539 275.357C365.24 272.462 362.943 271.06 359.749 271.06C359.347 271.06 358.847 271.06 358.451 271.158C354.355 271.56 350.558 273.358 346.963 274.961C343.665 276.46 340.472 277.959 337.071 278.459C336.272 278.557 335.377 278.654 334.377 278.654C333.176 278.654 332.079 278.557 330.879 278.459C329.678 278.355 328.38 278.258 327.185 278.258C326.984 278.258 326.881 278.258 326.685 278.258C324.187 278.258 321.889 278.855 319.689 279.355C318.293 279.654 316.995 279.958 315.593 280.153C315.093 280.257 314.594 280.257 313.996 280.257C309.2 280.257 305.506 277.155 301.411 273.858C300.509 273.059 299.515 272.261 298.613 271.56C294.518 268.464 291.324 264.563 287.923 260.461C286.229 258.365 284.431 256.268 282.53 254.263L281.932 253.666C277.538 248.967 272.041 243.171 272.839 236.771C273.04 234.974 273.838 233.273 274.637 231.573C275.137 230.378 275.74 229.177 276.136 227.776C277.434 223.479 276.337 219.481 275.24 215.678L275.137 215.178C274.04 211.381 273.942 208.486 274.74 205.682C275.636 202.483 277.538 199.484 279.135 196.888C279.732 195.888 280.335 194.889 280.933 193.987C282.03 192.189 283.133 190.287 284.327 188.593C286.229 185.893 288.722 184.193 291.818 182.395C294.615 180.792 297.614 179.091 299.71 175.995C300.911 174.197 301.813 172.198 302.611 170.199C303.111 169.096 303.507 167.999 304.007 166.902C305.305 164.202 307.207 162.3 310.102 160.503C313.295 158.504 315.398 156.303 317.793 153.603C319.189 152.007 320.189 151.805 321.188 151.805C322.188 151.805 323.388 152.104 324.388 152.506C326.484 153.207 328.581 153.506 330.879 153.506C333.176 153.506 335.474 153.207 338.07 152.403C339.369 152.007 340.667 151.604 341.867 151.202C344.263 150.404 346.463 149.703 348.858 149.307C352.155 148.703 355.654 148.703 358.549 148.703C359.249 148.703 360.048 148.703 360.749 148.703C361.443 148.703 362.144 148.703 362.845 148.703C366.74 148.703 369.836 148.606 372.737 148.307H372.834C373.834 148.203 374.833 148.106 375.931 148.106C378.228 148.106 379.728 148.606 380.623 149.605C382.025 151.105 382.123 153.305 382.226 155.706C382.324 158.101 382.421 160.899 384.024 163.203C386.322 166.402 390.314 167.402 393.715 168.298C394.909 168.596 396.013 168.901 397.006 169.2C400.005 170.199 402.704 171.997 405.002 173.698C405.301 173.899 405.697 174.197 406.099 174.496C408.397 176.196 411.292 178.293 414.492 178.293C415.186 178.293 415.887 178.195 416.588 177.994C419.282 177.092 419.885 174.593 420.385 172.796C420.483 172.198 420.684 171.698 420.885 171.199C421.482 169.596 422.384 169.498 422.981 169.498C423.481 169.498 424.182 169.699 424.877 169.998C426.279 170.595 427.577 171.595 428.973 172.594C430.173 173.496 431.471 174.398 432.873 175.197C436.164 176.897 439.663 177.592 443.057 178.293L443.661 178.397C444.66 178.592 445.757 178.896 446.958 179.292C449.451 179.993 452.352 180.895 455.046 180.895C458.641 180.895 461.238 179.292 462.536 176.093C463.938 172.698 464.535 168.499 464.139 164.702C463.938 163.203 463.438 158.4 458.142 158.4C457.746 158.4 457.246 158.4 456.746 158.504C455.747 158.504 451.547 158.101 448.652 156.206C446.757 155.005 445.855 153.207 444.855 151.403L444.758 151.105C439.76 141.609 437.267 136.813 434.068 134.813C432.069 133.509 429.771 132.912 426.974 132.912C425.176 132.912 423.28 133.113 421.482 133.412C419.782 133.613 418.087 133.911 416.588 133.911C413.992 133.911 412.194 133.314 410.792 131.912C410.591 131.711 410.396 131.51 410.195 131.212C409.793 130.712 409.195 130.011 408.098 129.212C406.398 127.914 404.6 126.915 402.802 125.915C401.406 125.117 399.907 124.312 398.609 123.313C396.11 121.618 394.812 120.314 393.91 119.418C392.715 118.315 391.917 117.517 390.113 117.218C389.814 117.218 389.516 117.121 389.217 117.121C386.822 117.121 383.622 118.62 380.825 120.016C379.624 120.619 378.527 121.119 377.631 121.515C376.631 121.917 375.833 122.015 375.132 122.015C374.334 122.015 373.633 121.814 372.633 121.618C371.238 121.314 369.537 120.814 366.843 120.814C365.539 120.814 364.241 120.918 362.748 121.119C358.652 121.618 354.752 122.813 351.454 124.416C348.163 126.116 345.865 128.012 345.061 128.713L344.866 128.816C340.167 132.814 328.38 137.008 318.293 137.008C314.295 137.008 308.901 136.313 306.006 133.009C304.208 130.913 304.208 128.713 304.208 125.915C304.208 122.514 304.208 118.315 300.71 113.519C298.516 110.423 296.316 109.021 294.518 107.82C292.72 106.619 291.623 105.925 291.123 104.121C290.325 101.226 291.324 97.0264 293.817 93.5281C296.413 89.7311 300.113 87.4273 303.91 87.1287C304.208 87.1287 304.507 87.1287 304.806 87.1287C308.804 87.1287 312.899 89.1277 314.996 92.1263C316.392 94.1254 316.392 95.8258 316.392 97.8248C316.392 99.8239 316.392 102.122 318.092 104.523C320.591 108.021 325.582 110.221 330.879 110.221C333.774 110.221 336.376 109.521 338.369 108.32C339.972 107.32 340.77 106.424 342.068 104.925C342.964 103.822 344.165 102.426 346.262 100.226C347.56 98.8244 349.26 97.5262 351.357 96.228C354.855 94.0278 358.25 92.3274 361.047 91.6265C362.547 91.2304 365.045 90.627 369.239 90.5295C369.836 90.5295 370.439 90.5295 371.037 90.5295C378.728 90.5295 385.719 92.2299 392.014 93.6256C392.813 93.8267 393.514 94.0278 394.208 94.1254C397.207 94.8262 399.407 95.4235 401.705 95.4235C402.802 95.4235 403.899 95.326 405.002 95.0274C406.995 94.6251 412.09 93.4245 413.791 89.1277C415.686 84.0326 411.091 79.1324 410.493 78.6327C408.196 76.2314 404.801 74.9332 401.303 74.9332C399.803 74.9332 398.408 75.1343 397.11 75.6341C395.909 76.0302 395.409 76.53 394.909 76.9322C394.513 77.2309 394.111 77.5356 393.313 78.0354C391.112 79.1324 388.419 79.8333 385.822 79.8333C383.122 79.8333 380.825 79.1324 379.228 77.8343C378.826 77.5356 378.527 77.2309 378.228 76.8347C377.728 76.2314 377.131 75.6341 375.931 74.9332C374.23 73.9337 372.237 73.5314 369.635 73.5314C369.336 73.5314 369.037 73.5314 368.836 73.5314H368.44C367.538 73.5314 366.74 73.635 365.941 73.635C363.144 73.635 361.047 73.3364 358.75 71.5324C356.952 70.1367 355.056 68.1376 354.953 66.5347C354.855 66.035 355.056 65.6388 355.355 65.2365C356.653 63.7373 359.95 63.6397 362.443 63.5361C363.144 63.5361 363.942 63.4386 364.546 63.4386C367.24 63.14 369.738 62.3355 372.134 61.5371C373.834 60.9398 375.431 60.44 377.131 60.0378C378.326 59.7391 379.325 59.6416 380.227 59.4405C383.122 58.9407 384.92 58.6421 385.92 56.7406C387.12 54.7415 386.322 52.6449 385.822 51.1395C385.719 50.8409 385.621 50.4447 385.524 50.14C388.918 52.2427 392.411 54.5404 395.708 56.8381C399.206 59.2394 402.704 61.8357 406.099 64.4381C408.098 65.9374 409.994 67.5342 411.895 69.0335C430.575 84.4287 446.653 102.524 459.745 122.813C473.025 143.407 483.014 165.902 489.212 189.489C489.609 191.189 490.108 192.987 490.511 194.791C490.511 194.791 490.511 194.791 490.511 194.889C491.809 200.484 493.003 206.182 493.905 211.881C495.204 220.078 496.106 228.574 496.605 236.973C496.502 237.174 496.404 237.375 496.203 237.472C495.801 237.771 495.301 237.875 494.606 237.875C491.906 237.875 487.811 235.772 485.117 233.072C483.715 231.676 482.716 230.177 477.224 213.179L477.121 212.88C475.822 208.785 474.926 206.085 472.428 202.885C471.532 201.684 466.833 195.888 462.737 195.888C462.237 195.888 461.738 195.986 461.238 196.187C458.745 197.186 458.641 199.984 458.343 204.287C458.245 206.487 458.044 209.181 457.544 212.381C456.545 218.579 455.247 221.376 454.15 223.68C453.15 225.874 452.248 227.575 452.547 230.677C452.852 234.376 456.947 240.069 462.64 244.969C467.832 249.369 476.621 255.068 488.908 257.067C491.51 257.463 494.106 257.768 496.8 257.768C496.8 258.664 496.703 259.566 496.703 260.364C496.605 261.662 496.605 263.064 496.502 264.46C496.301 268.36 495.904 272.358 495.502 276.259C494.106 278.154 492.205 279.958 490.309 281.854C489.511 282.658 488.713 283.457 487.914 284.255C485.714 286.455 479.022 293.251 475.323 301.948C473.427 306.446 470.727 312.742 471.83 324.84C472.525 332.738 472.83 339.235 469.63 345.434C468.033 348.633 465.437 350.931 462.841 353.43C460.939 355.228 458.94 357.026 457.343 359.226C455.344 361.828 454.345 364.626 454.15 367.923C454.15 368.222 454.15 368.624 454.15 368.922C454.046 372.025 453.949 374.523 452.047 376.919C451.352 377.821 450.554 378.619 449.749 379.418C448.451 380.819 447.056 382.319 445.958 384.117C445.056 385.616 444.356 387.219 443.758 388.718C442.862 390.717 442.058 392.613 440.863 394.313C437.267 399.609 432.172 404.412 426.48 407.91C423.579 409.611 420.586 410.909 417.685 412.006C415.686 412.804 413.888 413.804 412.09 414.706C410.695 415.504 409.396 416.205 407.995 416.802C406.398 417.607 405.697 417.802 405.002 417.802Z" fill="#95BE46"/>
<mask id="mask0_1_2" style="mask-type:luminance" maskUnits="userSpaceOnUse" x="23" y="11" width="477" height="478">
<path d="M23.347 11.7862H500V488.049H23.347V11.7862Z" fill="white"/>
</mask>
<g mask="url(#mask0_1_2)">
<path d="M500 249.869C500 246.468 499.896 242.97 499.799 239.471C499.799 238.771 499.701 238.07 499.701 237.375C499.701 237.271 499.701 237.271 499.701 237.174C499.299 228.574 498.3 219.981 497.001 211.582L496.904 211.284C496.002 205.585 494.807 199.886 493.503 194.389L493.406 194.09C493.003 192.286 492.51 190.592 492.107 188.989L492.01 188.691C485.617 164.702 475.524 141.81 462.042 120.918C448.756 100.324 432.373 81.9299 413.388 66.2361L413.291 66.1386C411.395 64.6393 409.494 63.0364 407.598 61.5371L407.099 61.0374H406.898C403.704 58.5385 400.303 56.1433 397.006 53.8395C393.514 51.4443 389.918 49.1405 386.322 46.9464C351.357 25.4505 311.199 13.4562 270.041 12.158H268.743C268.347 12.158 268.049 12.158 267.646 12.158C265.946 12.158 264.05 12.0544 262.252 12.0544C254.36 12.0544 246.467 12.4566 238.581 13.255C234.284 13.6573 230.085 14.157 225.892 14.8579H225.489L225.294 14.9555C224.094 15.1566 222.795 15.3577 221.595 15.5527C206.114 18.2527 190.926 22.4519 176.244 28.1504C172.746 29.5522 169.254 30.9479 165.853 32.4472H165.755C164.256 33.1481 162.757 33.849 161.257 34.5499C159.661 35.2507 158.161 36.0492 156.565 36.75C155.669 37.1462 154.767 37.646 153.968 38.0482C151.768 39.1453 149.671 40.2484 147.575 41.449L147.276 41.6441C146.874 41.8452 146.478 42.0463 146.076 42.345C144.875 43.0458 143.68 43.6431 142.577 44.344C141.681 44.8438 140.779 45.3435 139.883 45.9469C130.193 51.743 120.801 58.3374 112.012 65.5352L111.415 66.035C109.715 67.4368 108.014 68.8386 106.417 70.2342C105.223 71.2338 104.022 72.3369 102.822 73.4339C100.426 75.5305 98.1287 77.8343 95.7274 80.0345C93.9295 81.8324 92.1316 83.6303 90.4372 85.4283L89.4377 86.5314C89.4377 86.5314 89.4377 86.5314 89.3341 86.6289C88.6393 87.4273 87.9384 88.1282 87.14 88.9266C82.0449 94.424 77.2483 100.226 72.7566 106.223C68.3623 111.922 64.2667 118.017 60.4697 124.117C60.3661 124.312 60.2685 124.513 60.171 124.715C58.6717 127.116 57.1725 129.615 55.7707 132.114C55.472 132.51 55.2709 133.009 54.9723 133.412C54.5761 134.21 54.0763 135.009 53.6741 135.813C52.7782 137.507 51.8762 139.208 50.9803 141.006C50.3769 142.109 49.7796 143.309 49.2798 144.407C49.1823 144.705 48.9812 145.01 48.8776 145.309C48.4814 146.204 47.9817 147.106 47.5794 147.905C45.8851 151.403 44.2822 155.103 42.789 158.705L42.5879 159.204C42.5879 159.204 42.5879 159.302 42.4843 159.302L42.2892 159.802C41.4908 161.703 39.9915 165.202 38.3886 169.901V169.998C38.09 170.9 37.7914 171.796 37.3952 172.796C36.6943 174.795 35.9934 176.897 35.3961 178.994C34.9939 180.292 34.5977 181.596 34.1955 182.894C33.8969 184.095 33.4946 185.192 33.196 186.393L33.0984 186.691C32.8973 187.289 32.7998 187.788 32.6962 188.392C29.8987 198.686 27.8997 209.284 26.504 219.877C26.504 220.078 26.4065 220.377 26.4065 220.578L26.3029 221.078C26.3029 221.181 26.3029 221.181 26.3029 221.279C25.6081 227.075 25.1083 232.974 24.8036 238.874C24.8036 239.173 24.8036 239.471 24.8036 239.77V239.874C24.7061 241.47 24.7061 243.171 24.6086 245.072C24.6086 246.767 24.5049 248.37 24.5049 250.07C24.5049 306.848 44.782 361.828 81.7462 404.808C82.7457 406.009 83.7453 407.106 84.7448 408.209C87.0425 410.805 89.5352 413.408 91.9365 415.906C93.4297 417.406 94.8315 418.905 96.3308 420.307L96.4283 420.404C98.4274 422.306 100.524 424.305 102.724 426.304L102.822 426.401C105.119 428.498 107.618 430.601 110.013 432.6C110.117 432.697 110.214 432.697 110.312 432.801L110.416 432.898L110.513 433.002L110.812 433.197C131.595 450.494 154.968 463.89 180.242 473.184C206.51 482.881 234.18 487.781 262.35 487.781C320.987 487.781 377.43 466.188 420.982 426.999C464.139 388.218 491.608 335.335 498.3 278.057L498.403 277.46C498.897 273.358 499.299 269.159 499.5 265.063V264.959C499.598 263.564 499.701 262.162 499.701 260.864C499.799 259.462 499.799 258.066 499.799 256.665C499.799 256.665 499.799 256.665 499.799 256.567L499.896 254.367C499.896 253.568 499.896 252.666 499.896 251.868C500 251.07 500 250.466 500 249.869ZM488.908 253.568C468.332 250.168 455.948 234.974 455.545 230.476C455.344 228.373 455.844 227.373 456.844 225.374C457.941 222.979 459.543 219.779 460.641 212.984C461.14 209.583 461.341 206.786 461.439 204.482C461.543 202.483 461.738 199.984 462.036 199.588C462.036 199.588 462.036 199.588 462.14 199.588C463.438 199.588 466.534 202.184 468.929 205.183C471.032 207.883 471.727 210.18 473.025 214.081L473.129 214.38C478.723 231.475 479.82 233.675 481.917 235.772C484.916 238.874 489.109 241.068 492.504 241.568C492.607 244.268 492.607 247.071 492.607 249.765C492.607 250.369 492.607 250.966 492.607 251.667C492.607 252.465 492.607 253.264 492.607 254.068C491.406 253.965 490.108 253.763 488.908 253.568ZM403.101 67.4368C403.899 68.0341 404.697 68.7349 405.502 69.3383C405.697 69.4358 405.801 69.637 406.002 69.7345C406.501 70.1367 407.099 70.6365 407.598 71.0326C407.995 71.3374 408.397 71.636 408.793 71.9347L408.994 72.1358C409.994 73.0317 411.091 73.8362 412.09 74.7321C412.395 74.9332 412.694 75.2319 412.889 75.433C413.693 76.1339 414.388 76.7312 415.186 77.4321C415.491 77.7307 415.79 78.0293 416.186 78.2305C416.984 78.9313 417.789 79.6322 418.587 80.3331C418.788 80.5343 418.983 80.7293 419.282 80.9304C420.282 81.8324 421.281 82.7283 422.183 83.7279C422.384 83.929 422.683 84.1301 422.884 84.4288C423.579 85.1296 424.377 85.928 425.078 86.6289C425.377 86.9276 425.675 87.2262 425.98 87.5309C426.675 88.2257 427.376 88.9266 428.077 89.6275C428.375 89.9262 428.576 90.1273 428.875 90.4259C430.77 92.425 432.672 94.424 434.47 96.4231C434.671 96.6242 434.866 96.8253 435.067 97.124C435.768 97.9224 436.469 98.7269 437.164 99.6228C437.365 99.9214 437.664 100.123 437.865 100.421C438.566 101.323 439.266 102.122 440.065 103.024C440.26 103.225 440.364 103.42 440.565 103.621C441.461 104.724 442.363 105.821 443.161 106.924C443.258 107.022 443.258 107.119 443.362 107.119C444.16 108.119 444.855 109.021 445.654 110.02C445.958 110.319 446.153 110.721 446.458 111.02C446.958 111.721 447.555 112.422 448.055 113.116C448.451 113.616 448.756 114.116 449.055 114.518C449.554 115.219 450.054 115.816 450.45 116.517C450.749 117.017 451.151 117.517 451.45 117.919C451.95 118.62 452.449 119.418 452.949 120.119C453.248 120.515 453.546 120.918 453.845 121.417C454.649 122.514 455.344 123.715 456.143 124.916C456.947 126.214 457.746 127.415 458.544 128.713C458.94 129.414 459.342 130.011 459.745 130.712C460.141 131.315 460.543 131.912 460.842 132.613C461.341 133.412 461.738 134.21 462.237 135.009C462.536 135.508 462.841 136.008 463.036 136.41C463.535 137.312 464.035 138.208 464.535 139.208C464.736 139.61 464.937 140.006 465.138 140.408C465.638 141.408 466.235 142.407 466.735 143.511C466.936 143.809 467.034 144.108 467.235 144.407C467.832 145.51 468.332 146.607 468.929 147.704C469.033 147.905 469.13 148.106 469.234 148.405C469.831 149.605 470.429 150.806 470.928 152.007C471.032 152.104 471.032 152.305 471.129 152.403C471.727 153.701 472.33 155.005 472.927 156.303C472.927 156.303 472.927 156.401 473.025 156.401C477.224 165.896 480.82 175.697 483.715 185.692C484.117 186.99 484.416 188.288 484.812 189.593C484.812 189.788 484.916 189.891 484.916 190.092L485.013 190.592C485.312 191.787 485.617 192.987 485.915 194.188C485.915 194.389 486.013 194.487 486.013 194.688C486.116 194.889 486.116 195.09 486.214 195.291L486.311 195.791C486.61 197.186 486.915 198.485 487.213 199.886C487.311 200.289 487.414 200.685 487.414 200.983C487.609 201.983 487.811 202.983 488.012 203.982C488.109 204.384 488.213 204.787 488.213 205.286C488.414 206.286 488.609 207.285 488.81 208.181C488.908 208.486 488.908 208.785 489.011 209.181C489.212 210.284 489.407 211.381 489.609 212.582C489.81 213.581 489.907 214.483 490.011 215.483C490.011 215.781 490.108 216.08 490.108 216.482C490.212 217.08 490.309 217.78 490.407 218.378C490.511 218.78 490.511 219.182 490.608 219.578C490.706 220.182 490.706 220.682 490.809 221.279C490.907 221.681 490.907 222.181 491.01 222.577C491.108 223.077 491.108 223.576 491.205 224.076C491.309 224.576 491.309 225.076 491.406 225.478C491.51 225.978 491.51 226.478 491.51 226.977C491.51 227.477 491.608 227.977 491.608 228.477C491.705 228.976 491.705 229.574 491.705 230.073C491.809 230.774 491.809 231.573 491.906 232.274C491.906 232.773 492.01 233.377 492.01 233.876C490.511 233.273 488.609 232.176 487.012 230.573C486.116 229.677 485.117 227.776 480.022 212.082L479.918 211.783C478.522 207.584 477.523 204.287 474.628 200.685C472.629 198.186 467.534 192.286 462.036 192.286C461.043 192.286 460.043 192.487 459.141 192.89C458.641 193.091 458.142 193.39 457.746 193.688C454.546 195.888 454.247 200.088 454.046 204.086C453.949 206.182 453.747 208.785 453.248 211.881C452.352 217.482 451.151 219.981 450.152 222.181C449.055 224.375 447.854 226.977 448.153 231.073C448.354 233.876 449.95 237.174 452.547 240.672C454.448 243.067 456.746 245.572 459.543 247.967C465.035 252.666 474.427 258.767 487.609 260.864C489.109 261.162 490.706 261.266 492.205 261.461C492.205 261.961 492.205 262.461 492.107 262.863V262.96C492.107 263.46 492.01 263.96 492.01 264.46C491.906 265.959 491.809 267.458 491.705 269.061C491.705 269.36 491.608 269.762 491.608 270.061C491.608 270.463 491.51 270.963 491.51 271.359C491.406 271.962 491.406 272.559 491.309 273.157C491.309 273.461 491.205 273.656 491.205 273.961C491.205 274.357 491.108 274.76 491.108 275.156C489.907 276.558 488.414 278.057 486.915 279.556C486.116 280.355 485.214 281.153 484.416 281.957C482.118 284.255 475.024 291.453 471.129 300.851C469.033 305.745 466.235 312.443 467.332 325.541C467.936 332.738 468.234 338.736 465.437 344.129C464.139 346.732 461.841 348.828 459.342 351.132C457.343 353.028 455.247 354.929 453.351 357.324C450.95 360.524 449.652 364.022 449.451 368.124L449.353 369.124C449.256 372.122 449.152 373.622 448.055 375.023C447.458 375.718 446.757 376.523 445.958 377.321C444.557 378.82 442.862 380.521 441.662 382.715C440.662 384.415 439.961 386.018 439.266 387.615C438.462 389.516 437.664 391.217 436.664 392.716C433.373 397.61 428.674 402.011 423.378 405.21C420.781 406.807 417.886 408.008 415.186 409.007C412.992 409.909 410.993 410.909 409.195 411.908C407.995 412.609 406.898 413.206 405.697 413.706C405.697 413.408 405.599 413.005 405.599 412.609C405.502 412.006 405.502 411.409 405.398 410.708C405.002 408.209 404.1 405.71 402.704 403.01C402.406 402.413 402.004 401.712 401.705 401.109C400.504 398.914 399.505 397.11 399.206 395.215C398.907 393.612 398.804 391.912 398.706 390.114C398.609 388.316 398.505 386.414 398.207 384.415C397.609 380.716 396.208 377.821 394.812 374.92C394.513 374.322 394.215 373.719 394.013 373.122C392.514 370.02 392.112 367.222 392.514 364.522C393.014 361.828 394.312 359.128 395.708 356.227C396.11 355.325 396.512 354.527 397.006 353.631C398.207 351.029 399.304 348.329 399.803 345.33C400.602 340.832 399.907 336.633 399.005 332.738C398.907 332.135 398.804 331.538 398.609 330.934C397.908 327.54 397.207 324.041 395.909 320.64C394.513 316.74 392.411 313.546 389.717 310.048C387.62 307.348 386.121 305.148 385.92 302.948C385.822 301.247 386.517 299.352 387.321 297.249C388.419 294.25 389.717 290.453 389.119 286.254C388.419 281.354 384.92 277.655 380.026 276.356C378.929 276.058 377.832 275.96 376.631 275.96C375.534 275.96 374.535 276.058 373.535 276.155C372.432 276.259 371.335 276.356 370.738 276.259C370.537 275.96 370.336 275.259 370.238 275.058C370.037 274.559 369.836 274.059 369.537 273.461C367.642 269.36 364.046 267.062 359.45 267.062C358.847 267.062 358.347 267.062 357.75 267.16C353.057 267.659 349.059 269.561 345.165 271.359C342.068 272.761 339.167 274.156 336.272 274.559C334.773 274.76 332.878 274.656 330.781 274.559C329.379 274.461 327.783 274.357 326.283 274.357C323.388 274.461 320.987 274.961 318.592 275.558C317.294 275.857 315.995 276.155 314.795 276.356C310.9 276.96 307.505 274.156 303.507 270.859C302.611 270.061 301.612 269.262 300.612 268.458C296.815 265.563 293.817 261.863 290.52 257.963C288.825 255.866 287.027 253.666 285.028 251.667L284.431 251.07C280.53 246.968 275.74 241.873 276.337 237.174C276.435 235.973 277.136 234.571 277.837 233.072C278.434 231.774 279.037 230.372 279.537 228.873C281.231 223.479 279.836 218.877 278.635 214.678L278.537 214.178C277.635 211.082 277.538 208.785 278.135 206.682C278.934 203.982 280.634 201.185 282.133 198.789C282.731 197.79 283.328 196.79 283.931 195.791C285.028 193.987 286.028 192.286 287.125 190.69C288.624 188.593 290.721 187.094 293.421 185.594C296.316 183.894 299.912 181.895 302.508 178.092C304.007 175.995 304.806 173.795 305.708 171.699C306.104 170.595 306.603 169.596 307.006 168.7C308.005 166.597 309.401 165.202 311.699 163.8C315.295 161.6 317.592 159.101 320.189 156.206C320.493 155.804 320.688 155.706 320.792 155.602C321.389 155.602 322.486 156.005 322.888 156.102C327.88 157.705 332.878 157.705 338.57 156.102C339.972 155.706 341.27 155.304 342.568 154.902C344.762 154.201 346.962 153.506 349.059 153.104C352.058 152.604 355.355 152.506 358.152 152.506C358.951 152.506 359.652 152.506 360.346 152.506C361.145 152.506 361.846 152.506 362.443 152.506C366.441 152.506 369.641 152.403 372.633 152.104H372.737C373.633 152.007 374.632 151.903 375.431 151.903C377.028 151.903 377.43 152.202 377.43 152.202C377.93 152.701 377.93 154.103 378.027 156.005C378.131 158.802 378.228 162.301 380.526 165.5C383.622 169.797 388.62 171.095 392.313 171.997C393.41 172.296 394.41 172.497 395.312 172.796C397.81 173.698 400.303 175.294 402.406 176.794C402.704 176.995 403.003 177.293 403.399 177.495C405.898 179.293 409.598 181.992 413.888 181.992C414.991 181.992 416.088 181.791 417.185 181.493C421.781 179.896 422.78 175.794 423.378 173.698V173.594C424.28 174.094 425.182 174.795 426.175 175.496C427.473 176.495 428.875 177.495 430.575 178.397C434.269 180.292 438.066 181.09 441.759 181.895L442.363 181.992C443.161 182.194 444.258 182.492 445.459 182.791C448.256 183.595 451.352 184.595 454.546 184.595C455.649 184.595 456.746 184.491 457.746 184.193C461.238 183.394 463.938 181.09 465.437 177.495C467.131 173.594 467.832 168.596 467.332 164.3C466.632 158.302 463.139 154.804 457.746 154.804C457.246 154.804 456.746 154.804 456.246 154.902C456.143 154.902 456.045 154.902 455.844 154.902C454.649 154.804 451.95 154.304 450.152 153.201C449.152 152.506 448.555 151.604 447.653 149.806L447.555 149.508C442.161 139.11 439.663 134.314 435.665 131.815C434.366 131.01 432.971 130.413 431.471 130.011C429.972 129.615 428.375 129.414 426.577 129.414C424.481 129.414 422.482 129.712 420.586 129.913C418.983 130.115 417.484 130.31 416.186 130.31C414.29 130.31 413.492 129.913 412.895 129.31C412.791 129.212 412.791 129.115 412.59 129.011C412.09 128.414 411.292 127.512 409.896 126.415C407.995 125.013 406.099 123.916 404.301 122.917C402.899 122.118 401.601 121.314 400.407 120.515C398.109 119.016 397.11 117.919 396.208 117.017C394.909 115.816 393.41 114.317 390.418 113.817C389.918 113.72 389.516 113.72 389.016 113.72C385.719 113.72 382.324 115.317 379.027 116.92C377.93 117.419 376.833 117.919 376.034 118.218C375.23 118.516 374.931 118.516 374.833 118.516C374.431 118.516 373.931 118.419 373.237 118.218C372.536 118.017 371.634 117.815 370.537 117.614C369.44 117.419 368.142 117.316 366.539 117.316C365.143 117.316 363.644 117.419 361.943 117.614C357.451 118.218 353.057 119.516 349.461 121.314C345.762 123.215 343.263 125.312 342.367 126.116L342.27 126.214C338.174 129.712 327.185 133.509 318.092 133.509C313.6 133.509 310.102 132.51 308.603 130.809C307.804 129.913 307.707 129.011 307.707 126.116C307.707 122.417 307.707 117.316 303.611 111.617C301.009 108.021 298.211 106.223 296.413 105.023C294.615 103.92 294.615 103.822 294.518 103.322C294.115 101.823 294.615 98.7269 296.614 95.8258C298.613 93.0284 301.313 91.2243 304.007 91.0293C304.208 91.0293 304.409 91.0293 304.604 91.0293C307.402 91.0293 310.4 92.425 311.699 94.424C312.4 95.5272 312.4 96.3256 312.4 98.026C312.4 100.324 312.4 103.523 314.795 106.924C317.994 111.319 324.187 114.116 330.58 114.116C334.176 114.116 337.369 113.22 339.972 111.617C342.068 110.319 343.165 109.021 344.464 107.424C345.366 106.424 346.463 105.023 348.462 102.92C349.559 101.725 351.058 100.622 352.856 99.4217C356.05 97.4226 359.152 95.9233 361.645 95.2285C362.943 94.8263 365.24 94.3265 368.94 94.229C369.44 94.229 370.037 94.229 370.537 94.229C377.832 94.229 384.622 95.8258 390.613 97.2276C391.417 97.4226 392.112 97.6237 392.715 97.7274C395.909 98.5258 398.408 99.123 401.102 99.123C402.503 99.123 403.802 99.0255 405.197 98.6233C407.397 98.1235 414.29 96.6242 416.588 90.4259C419.282 83.2281 413.193 76.7312 412.493 76.0303C410.993 74.531 409.195 73.3364 407.099 72.4344C405.1 71.636 402.899 71.1362 400.602 71.1362C398.706 71.1362 396.811 71.4349 395.208 72.0322C393.514 72.6355 392.715 73.3364 391.917 73.9337C391.612 74.1348 391.417 74.336 390.917 74.531C389.217 75.433 387.12 75.9328 385.121 75.9328C383.323 75.9328 381.727 75.5305 380.928 74.8357C380.727 74.7321 380.623 74.6346 380.428 74.336C379.825 73.6351 378.929 72.6355 377.131 71.636C374.632 70.2342 371.737 69.637 368.142 69.7345H367.739C366.843 69.7345 366.039 69.8381 365.344 69.8381C362.845 69.8381 361.645 69.5333 360.346 68.5338C359.847 68.1377 359.347 67.7354 359.048 67.3332C360.145 67.2357 361.346 67.1381 361.943 67.1381C362.748 67.1381 363.443 67.0345 364.241 67.0345C367.441 66.7359 370.134 65.8339 372.737 64.938C374.334 64.4382 375.833 63.8348 377.332 63.5362C378.429 63.3351 379.429 63.14 380.227 62.9389C383.323 62.3355 386.517 61.8358 388.516 58.441C388.815 58.0388 389.016 57.539 389.119 57.0392C389.516 57.2404 389.814 57.539 390.216 57.7401C390.418 57.8376 390.515 57.9413 390.716 58.0388C391.515 58.5385 392.313 59.1419 393.111 59.6417C396.311 62.238 399.706 64.7368 403.101 67.4368ZM468.533 352.631C464.937 359.829 460.939 366.826 456.642 373.622C456.844 372.22 456.947 370.824 456.947 369.52L457.045 368.52C457.142 365.924 457.941 363.827 459.44 361.828C460.939 359.927 462.737 358.226 464.535 356.526C465.937 355.228 467.332 353.93 468.533 352.631ZM151.969 59.6417C153.468 59.1419 156.363 58.3374 157.467 55.1438C158.564 52.0416 157.265 48.3421 154.468 46.1419C154.669 46.0444 154.767 45.9469 154.968 45.8433C155.565 45.5447 156.266 45.1424 156.967 44.8438C157.162 44.7463 157.363 44.6427 157.564 44.5451C158.466 44.0454 159.362 43.6431 160.264 43.1434C161.562 42.4486 162.958 41.8452 164.256 41.2479C165.853 40.4434 167.553 39.7486 169.254 38.9441C169.552 38.8466 169.948 38.6455 170.253 38.548C182.54 33.1481 195.327 28.8513 208.412 25.7491C208.412 25.7491 208.412 25.7491 208.51 25.7491C209.607 25.4505 210.606 25.2494 211.709 25.0543C211.904 25.0543 212.008 24.9507 212.209 24.9507C213.202 24.7496 214.202 24.5546 215.202 24.3535C215.403 24.3535 215.701 24.2498 215.902 24.1523C216.902 23.9512 217.901 23.7501 218.998 23.5551C219.2 23.5551 219.401 23.4514 219.596 23.4514C220.699 23.2503 221.893 23.0553 222.997 22.8542C223.094 22.8542 223.192 22.8542 223.295 22.7506C224.496 22.5555 225.794 22.3544 226.989 22.1533H227.19C228.592 21.9521 230.085 21.751 231.487 21.556C231.688 21.556 231.986 21.4524 232.187 21.4524C233.382 21.2513 234.583 21.1537 235.783 21.0562C236.179 21.0562 236.478 20.9526 236.88 20.9526C237.977 20.8551 239.074 20.7515 240.074 20.654C240.476 20.654 240.878 20.5565 241.275 20.5565C242.274 20.4529 243.274 20.3553 244.371 20.2517C244.773 20.2517 245.273 20.1542 245.669 20.1542C246.668 20.0567 247.668 20.0567 248.667 19.9531C249.167 19.9531 249.563 19.8556 250.063 19.8556C251.063 19.752 251.965 19.752 252.964 19.752C253.464 19.752 253.964 19.752 254.463 19.6545C255.457 19.6545 256.359 19.5569 257.358 19.5569C257.858 19.5569 258.358 19.5569 258.858 19.5569C259.254 19.5569 259.656 19.5569 260.052 19.5569C257.755 20.7515 255.061 22.2508 252.361 24.5546C249.368 27.0534 247.869 29.3511 246.772 30.9479C245.669 32.6483 245.169 33.2517 243.475 34.1476C242.073 34.8485 240.178 35.1471 236.179 35.848C233.486 36.3478 232.084 36.4453 230.085 36.5489C228.592 36.6464 226.891 36.75 224.191 37.1462C223.496 37.2498 222.692 37.3473 221.893 37.3473C217.603 37.7496 212.806 38.2493 208.607 40.7482C206.913 41.8452 205.511 43.1434 204.414 44.2465C203.317 45.3435 202.415 46.2456 201.519 46.5442C200.02 47.044 198.021 47.1415 196.022 47.2451C194.626 47.3426 193.328 47.3426 191.828 47.5437C184.137 48.5433 179.84 53.6384 176.543 57.7401C175.147 59.4405 173.849 61.0374 172.447 62.238C170.552 63.9384 168.254 64.6393 164.36 64.8343C163.86 64.8343 163.458 64.938 162.958 64.938C161.861 65.0355 160.66 65.0355 159.563 65.0355C157.564 65.0355 156.168 64.8343 155.266 64.3346C154.968 64.2371 154.468 63.5362 154.066 63.0364C153.468 62.238 152.67 61.2385 151.573 60.4401C151.469 60.3365 151.268 60.239 151.171 60.1414C151.073 59.8367 151.469 59.7392 151.969 59.6417ZM90.7359 115.518C91.0345 116.018 91.0345 116.018 91.1381 116.42C91.1381 116.816 91.1381 117.017 90.937 117.62C90.6384 118.815 90.035 121.015 91.4368 123.618C92.2352 125.013 93.3322 125.915 94.3317 126.415C93.5333 127.012 92.7349 127.415 92.034 127.415C92.034 127.415 92.034 127.415 91.9365 127.415C91.4368 127.116 90.8334 126.915 90.035 126.714C89.2366 126.513 88.4382 126.415 87.6398 126.415C82.8433 126.415 78.9488 129.615 76.8522 131.315C75.6515 132.315 74.4509 133.412 73.4514 134.612C72.6529 135.508 72.0557 136.313 71.5559 137.008C70.66 138.208 69.9591 139.208 68.1612 140.811C67.96 141.006 67.7589 141.207 67.4603 141.408C66.2596 142.407 64.9615 143.608 63.7669 145.205C62.8649 146.509 62.164 147.807 61.6642 148.904C61.3656 149.404 61.1645 149.904 60.9694 150.404C60.4697 151.306 59.6713 152.202 58.7693 153.104C57.1725 154.902 55.1734 157.205 54.1739 160.399C53.7777 161.801 53.473 163.001 53.1743 164.202C52.5771 166.701 52.2784 168.2 50.9803 169.596C50.6755 169.901 50.3769 170.297 49.3773 171.595C48.0792 173.198 45.9826 175.898 42.8865 179.695L42.789 179.792C43.1851 178.695 43.4838 177.495 43.886 176.398C43.886 176.294 43.886 176.294 43.9836 176.196C44.3858 174.898 44.8856 173.594 45.2817 172.399C45.2817 172.296 45.2817 172.296 45.3853 172.198C45.3853 172.198 45.3853 172.198 45.3853 172.095C46.4824 168.999 48.9812 162.8 49.481 161.502C49.481 161.399 49.5785 161.301 49.5785 161.203C49.5785 161.1 49.6821 161.002 49.6821 160.899C51.0778 157.504 52.5771 154.103 54.1739 150.806C54.7711 149.605 55.2709 148.508 55.8743 147.308C57.27 144.51 58.7693 141.707 60.2685 139.007C60.7683 138.208 61.1645 137.41 61.5667 136.709C62.2676 135.411 62.9624 134.21 63.7669 132.912C64.7664 131.114 65.8635 129.414 66.9605 127.616C68.0576 125.812 69.2582 124.014 70.3553 122.313C72.7566 118.815 75.1518 115.317 77.7481 111.922C78.1504 111.422 78.5465 110.922 78.9488 110.423C79.546 109.618 80.0458 108.923 80.6492 108.222C80.8442 108.021 80.9478 107.82 81.1428 107.619C81.5451 107.119 82.0449 106.522 82.4471 106.022C82.6421 105.821 82.8433 105.522 83.0444 105.321C83.5441 104.724 84.0439 104.121 84.5437 103.523C84.7448 103.322 84.9398 103.121 85.0434 102.823C85.5432 102.225 86.043 101.622 86.4391 101.122C86.6402 100.823 86.9389 100.525 87.2375 100.226C87.6398 99.8239 87.9384 99.4217 88.3407 98.9219C88.6393 98.6233 88.8404 98.3246 89.1391 98.026C89.6388 97.5262 90.035 96.9229 90.5347 96.4231C90.6384 96.3256 90.7359 96.1245 90.937 96.0269C91.1381 96.2281 91.4368 96.4231 91.6318 96.6242C92.9361 97.5262 94.3317 97.9224 95.831 97.9224C100.323 97.9224 103.224 93.9243 104.918 91.5291C105.022 91.3279 105.119 91.2304 105.32 91.0293C106.521 94.6252 107.716 96.2281 110.214 97.6237C111.513 98.4221 112.914 98.7269 114.408 98.7269C115.608 98.7269 116.608 98.5258 117.406 98.3246C118.003 98.2271 118.503 98.1235 119.003 98.1235H119.107C119.308 98.1235 119.503 98.1235 119.606 98.1235C118.808 98.6233 117.406 99.3242 115.31 100.226C109.916 102.323 104.821 103.121 101.024 103.621C98.726 103.926 97.0317 104.224 95.4288 104.724C91.4368 105.925 90.1386 108.32 89.7363 110.118C88.9379 112.72 90.1386 114.616 90.7359 115.518ZM32.3976 264.265C33.3971 265.161 34.1955 265.66 35.2925 266.264C36.2921 266.763 37.4927 267.458 39.2906 268.86C43.3863 271.859 45.2817 273.26 46.1837 275.558C47.683 279.459 45.9826 284.456 45.4828 285.852L45.3853 286.254C44.5869 288.253 43.3863 291.252 43.1851 295.354C43.1851 295.853 43.1852 296.353 43.2888 297.048C43.3863 298.151 43.6849 299.248 43.9836 300.248C44.3858 301.948 44.782 303.447 44.4833 304.947C43.7885 308.646 43.3863 311.742 45.8851 315.643C46.2813 316.24 46.6835 316.843 46.9821 317.441C48.2803 319.44 49.481 321.341 50.3769 323.438C51.2789 325.541 51.9798 327.637 52.7782 329.837C54.2775 334.134 55.7707 338.534 58.4706 342.533C60.5672 345.531 63.1635 347.932 65.7599 350.23C67.96 352.132 69.9591 353.93 71.6534 356.13C74.9506 360.427 76.0538 366.021 76.7486 371.324C77.2483 374.524 77.547 377.821 77.9492 381.02C78.2479 383.72 78.5465 386.414 78.9488 389.114C65.5648 371.421 54.8748 352.132 46.9821 331.337C38.5898 309.646 33.7993 287.254 32.3976 264.265ZM64.1631 256.463C64.7603 256.463 65.7599 256.768 67.058 257.268C68.6609 257.768 69.1607 258.267 70.0566 258.865C71.1537 259.663 72.6529 260.864 75.3529 261.565C77.1508 262.064 79.2474 262.266 81.6426 262.266C83.6417 262.266 85.5432 262.064 86.5427 261.961C86.8414 261.961 87.14 261.863 87.3411 261.863C87.8409 261.863 88.3407 261.863 89.2366 262.863C91.7354 265.563 93.832 267.659 96.8306 269.658C97.8301 270.359 98.9271 271.359 99.9267 272.462C101.024 273.559 102.224 274.76 103.62 275.857C107.521 278.758 112.012 279.654 115.608 280.355C118.107 280.854 120.502 281.257 122.3 282.256C123.501 282.853 124.5 284.054 125.597 285.956C125.896 286.455 126.195 286.955 126.499 287.455C127.298 288.753 128.596 290.85 128.492 291.654C128.395 291.953 127.895 292.751 127.499 293.348C126.798 294.354 125.896 295.652 125.299 297.249C124.5 299.449 123.3 305.148 129.797 310.444C132.094 312.346 134.288 313.241 136.586 313.241C139.286 313.241 141.681 312.047 143.882 309.743C144.68 308.847 144.979 308.744 145.076 308.744C145.18 308.744 145.375 308.744 145.679 308.847C147.276 309.243 148.574 310.444 150.573 312.346C154.37 316.143 158.466 316.441 162.062 316.843C164.957 317.045 167.852 317.343 170.448 318.142C173.051 318.842 175.342 320.244 177.945 322.14C180.84 324.139 183.534 325.437 187.331 326.436C189.927 327.137 190.03 327.637 190.128 327.838C190.53 328.935 190.628 331.538 187.233 337.236C185.935 339.436 184.234 341.435 181.937 343.63C179.34 346.134 176.043 349.231 174.745 354.027C173.849 357.129 173.947 360.024 173.947 362.828V363.925C173.947 367.222 173.648 369.825 172.746 372.421L172.648 372.719C171.149 377.321 169.449 382.617 165.853 383.519C164.457 383.915 162.86 384.117 161.062 384.415C155.864 385.317 149.97 386.317 145.277 390.315C141.084 393.911 141.383 398.713 141.584 401.511C141.584 401.913 141.681 402.212 141.681 402.51C141.681 402.913 141.681 403.211 141.584 403.51C141.182 404.808 140.182 405.606 139.682 406.106L139.585 406.21C135.989 409.409 135.288 413.206 134.886 416.004C134.587 417.905 134.288 419.301 133.289 420.605C130.394 424.104 122.599 425 114.609 425.603C114.109 425.603 113.713 425.701 113.213 425.701L113.109 425.603C113.012 425.603 113.012 425.499 112.914 425.499C112.415 425.103 111.915 424.604 111.415 424.201C111.214 424 110.915 423.805 110.714 423.604C110.416 423.305 110.013 423.001 109.715 422.702C109.416 422.403 109.117 422.105 108.819 421.904C108.514 421.605 108.215 421.404 107.917 421.105C105.82 419.003 103.62 416.906 101.621 415.206C98.726 412.408 95.9285 409.507 93.1311 406.508L93.0336 406.411C92.2352 405.509 91.4368 404.607 90.6384 403.711C88.8404 400.81 87.5362 397.415 86.8414 393.411C86.043 389.114 85.5432 384.616 85.141 380.32C84.8423 377.022 84.4401 373.719 83.9403 370.422C83.0444 364.126 81.7462 357.428 77.3519 351.729C75.2493 349.029 72.8541 346.933 70.5564 344.83C68.2587 342.734 66.0646 340.832 64.4617 338.534C62.3651 335.438 61.067 331.635 59.6713 327.637C58.8668 325.339 58.0684 323.042 57.0688 320.64C55.9718 318.044 54.4725 315.74 53.1743 313.644C52.7782 313.046 52.4734 312.443 52.0773 311.943C51.1753 310.548 51.0778 309.743 51.675 306.446C52.2784 303.246 51.675 300.65 51.0778 298.547C50.8766 297.749 50.6755 296.95 50.578 296.249C50.578 296.048 50.578 295.951 50.578 295.853C50.6755 292.849 51.5775 290.752 52.2784 289.052L52.4734 288.656C53.473 285.956 55.6732 279.154 53.1743 272.962C51.48 268.762 48.4814 266.562 43.886 263.161C41.6859 261.565 40.1866 260.663 39.0895 260.065C37.895 259.364 37.6938 259.364 37.1941 258.664C36.5907 257.963 36.1945 257.268 35.7923 256.268C37.9925 259.163 41.0886 261.461 44.4833 262.662C46.2812 263.265 48.3778 263.564 50.2794 263.564C54.0763 263.564 57.27 262.461 59.6713 260.364C60.0674 259.962 60.4697 259.566 60.8658 259.267C61.7678 258.267 62.6638 257.463 63.9619 256.866C63.8644 256.463 64.0655 256.463 64.1631 256.463ZM416.088 421.501C405.898 430.698 394.812 438.999 383.122 446.197C371.335 453.492 358.847 459.691 346.06 464.688C319.39 475.086 291.221 480.382 262.35 480.382C234.979 480.382 208.211 475.586 182.735 466.285C160.66 458.088 139.981 446.697 121.301 432.198C124.299 431.801 127.097 431.399 129.492 430.698C133.393 429.601 136.586 427.901 138.884 425.103C141.182 422.306 141.584 419.502 141.98 417.107C142.382 414.803 142.681 413.005 144.278 411.61L144.381 411.506C145.277 410.805 147.477 408.806 148.477 405.411C148.776 404.308 148.873 403.211 148.873 402.011C148.873 401.608 148.873 401.212 148.776 400.81C148.574 398.214 148.574 396.812 149.873 395.715C153.066 393.015 157.662 392.216 162.159 391.515C163.957 391.217 165.755 390.912 167.456 390.516C175.044 388.614 177.542 380.716 179.438 374.822L179.542 374.524C180.639 371.123 181.138 367.722 181.041 363.626V362.523C181.041 360.128 180.937 357.83 181.541 355.728C182.339 352.93 184.533 350.73 186.733 348.731C189.531 346.031 191.627 343.532 193.224 340.832C197.021 334.439 198.222 329.338 196.82 325.242C195.522 321.341 192.127 319.94 188.933 319.141C185.935 318.343 183.936 317.441 181.839 315.941C178.639 313.644 175.745 311.846 172.051 310.846C168.851 309.944 165.658 309.646 162.361 309.347C159.161 309.048 157.363 308.945 155.364 306.946C153.371 304.947 150.872 302.448 147.173 301.546C146.277 301.351 145.478 301.247 144.68 301.247C141.681 301.247 139.682 302.948 138.085 304.648C137.385 305.446 136.787 305.849 136.19 305.849C135.587 305.849 134.886 305.446 133.99 304.745C130.79 302.149 131.491 300.351 131.692 299.748C131.991 299.047 132.491 298.249 132.99 297.45C133.99 296.048 135.087 294.452 135.288 292.349C135.587 289.052 133.789 286.053 132.289 283.554C131.991 283.158 131.79 282.658 131.491 282.256C130.29 280.16 128.492 277.557 125.396 275.857C122.501 274.26 119.503 273.76 116.51 273.157C113.213 272.559 110.117 271.962 107.618 270.061C106.619 269.262 105.619 268.36 104.62 267.361C103.321 266.063 102.023 264.764 100.426 263.661C98.0251 262.064 96.2272 260.266 94.1306 257.963C91.5343 255.165 88.7368 254.166 84.9398 254.665C84.1414 254.769 82.6421 254.964 81.0453 254.964C79.3449 254.964 77.8517 254.763 76.6511 254.464C75.3529 254.166 74.8531 253.763 74.0547 253.069C73.0552 252.264 71.757 251.265 68.9596 250.369C67.1616 249.765 65.5648 249.168 63.7669 249.168C63.1635 249.168 62.6638 249.266 62.0665 249.266C61.4692 249.369 60.8658 249.57 60.3661 249.765C57.8733 250.966 56.2704 252.465 55.0759 253.666C54.7711 253.965 54.4725 254.263 54.2775 254.464C52.9732 255.567 51.1753 255.866 49.7796 255.866C48.5789 255.866 47.2808 255.665 46.1837 255.366C42.8865 254.263 40.0891 251.167 39.3882 247.87C38.992 246.169 39.1931 244.573 39.3882 242.97C39.6929 240.77 39.9915 238.271 37.9925 236.57C36.993 235.674 35.5973 235.272 33.9944 235.272C33.4946 235.272 32.9948 235.376 32.4951 235.376C32.3 235.376 32.1964 235.376 31.9953 235.376C32.3 230.878 32.6962 226.276 33.196 221.779C33.196 221.376 33.2996 221.078 33.2996 220.682C34.5977 210.583 36.4932 200.484 39.0895 190.787H39.1931C39.4918 190.787 39.7904 190.787 39.9915 190.787C43.0876 190.391 44.9831 188.191 48.0792 184.394C51.2789 180.493 53.3755 177.793 54.6736 176.196C55.2709 175.398 55.7707 174.795 55.9718 174.594C58.6717 171.699 59.269 168.7 59.9699 165.896C60.171 164.897 60.4697 163.8 60.7683 162.703C61.2681 161.002 62.5662 159.601 63.8644 158.101C64.9615 156.901 66.0646 155.706 66.863 154.103C67.2592 153.402 67.5578 152.805 67.8625 152.104C68.2587 151.202 68.6609 150.404 69.1607 149.703C69.8555 148.703 70.7575 147.905 71.757 147.009C72.0557 146.808 72.2568 146.607 72.5554 146.308C74.8531 144.205 75.9502 142.706 76.9497 141.408C77.4495 140.811 77.8517 140.207 78.449 139.506C79.4485 138.409 80.3444 137.507 81.0453 137.008C82.5446 135.813 85.0434 133.71 87.2375 133.71C87.5362 133.71 87.7373 133.71 87.9384 133.814C88.0359 133.814 88.0359 133.814 88.1395 133.911C88.4382 134.113 88.8404 134.314 89.5352 134.509C90.2361 134.71 90.937 134.814 91.6318 134.814C95.1301 134.814 98.8296 132.711 100.926 129.511C101.621 128.512 103.724 125.312 102.224 122.618C101.322 120.918 99.628 120.515 98.4274 120.217C98.1287 120.119 97.629 120.016 97.4278 119.918C97.4278 119.814 97.5314 119.516 97.5314 119.418C97.7265 118.62 98.0251 117.419 97.9276 115.816C97.7265 113.817 97.0317 112.519 96.5319 111.721C97.5314 111.422 99.628 111.02 101.322 110.819C105.418 110.221 111.013 109.423 117.205 107.022C123.8 104.425 126.896 101.725 127.097 98.4221C127.194 96.1245 125.896 94.3265 125.5 93.8268C124.397 92.5286 122.404 90.9257 118.503 90.7307C117.108 90.7307 115.907 90.9257 115.011 91.1268C114.408 91.2304 114.011 91.3279 113.609 91.3279C113.414 91.3279 113.213 91.3279 113.012 91.1268C112.311 90.7307 112.11 90.627 111.312 88.2257C110.214 84.9285 107.716 82.8319 104.821 82.8319C103.919 82.8319 103.023 83.0331 102.121 83.4292C103.821 81.7288 105.619 80.132 107.417 78.5352C108.514 77.5296 109.715 76.53 110.915 75.433C112.012 74.4335 113.213 73.5315 114.408 72.5319H114.712L116.011 71.1362C124.598 64.0359 133.789 57.6426 143.382 51.8405C143.479 51.743 143.577 51.743 143.68 51.6394C144.278 51.8405 144.875 51.9441 145.576 51.9441C146.374 51.9441 146.978 51.8405 147.575 51.743C147.977 51.6394 148.373 51.6394 148.776 51.6394C149.074 51.6394 149.172 51.6394 149.275 51.743C149.47 51.8405 149.671 52.0416 149.775 52.2427C149.574 52.3402 149.373 52.3402 149.275 52.4439C148.776 52.5414 148.172 52.7425 147.575 53.0411C145.076 54.0407 142.084 55.4424 140.98 57.9413C140.481 59.1419 140.481 60.3365 140.98 61.5371C141.779 63.4387 143.382 64.3346 144.777 65.1391C145.277 65.4377 145.777 65.7364 146.076 65.9375C146.575 66.3397 147.075 66.937 147.575 67.5343C148.477 68.5338 149.373 69.7345 150.872 70.5329C153.566 72.0322 156.668 72.2333 158.765 72.2333C160.063 72.2333 161.361 72.1358 162.659 72.0322C163.159 72.0322 163.555 71.9347 163.957 71.9347C167.956 71.7335 172.551 71.0326 176.543 67.4368C178.444 65.7364 179.938 63.8348 181.437 62.0369C184.533 58.2399 187.233 55.0402 192.03 54.4429C193.224 54.3393 194.327 54.2418 195.625 54.2418C198.118 54.1443 200.721 54.0407 203.317 53.1447C205.816 52.2427 207.51 50.6398 208.912 49.1405C209.808 48.2446 210.71 47.3426 211.807 46.7453C214.501 45.0449 218.298 44.7463 221.893 44.344C222.795 44.2465 223.594 44.1429 224.392 44.0454C226.891 43.7467 228.488 43.6431 229.987 43.5456C231.986 43.4481 233.681 43.247 236.777 42.7472C241.372 41.9488 243.572 41.5466 245.967 40.3459C249.466 38.6455 250.764 36.75 252.166 34.6474C253.159 33.1481 254.262 31.5513 256.456 29.6497C259.254 27.2545 261.954 25.9503 264.349 24.8532C267.25 23.4514 270.041 22.0558 270.943 19.2522C290.422 20.0567 309.7 23.2503 328.282 28.7538C346.865 34.3487 364.643 42.2474 381.227 52.3402C381.525 53.2423 381.824 54.1443 381.525 54.644C381.324 55.0402 380.227 55.2413 378.326 55.54C377.43 55.7411 376.43 55.8386 375.132 56.1433C373.237 56.5395 371.439 57.1429 369.738 57.7401C367.441 58.5385 365.24 59.2394 362.943 59.5381C362.443 59.6417 361.748 59.6417 361.047 59.6417C357.951 59.7392 353.654 59.9403 351.357 62.6403C350.357 63.8348 349.961 65.2366 350.059 66.6384C350.461 70.0331 353.856 73.0317 355.355 74.1348C358.652 76.6337 361.846 76.9323 364.741 76.9323C365.643 76.9323 366.441 76.9323 367.441 76.8348H367.837C368.038 76.8348 368.337 76.8348 368.538 76.8348C370.439 76.8348 371.835 77.1334 373.036 77.8343C373.736 78.2305 373.931 78.4316 374.334 78.9313C374.632 79.3336 375.132 79.8334 375.729 80.3331C377.93 82.1311 381.026 83.1306 384.622 83.1306C387.821 83.1306 391.015 82.3322 393.812 80.9304C395.013 80.3331 395.61 79.8334 396.11 79.4311C396.506 79.1325 396.61 79.035 397.207 78.7302C398.109 78.4316 399.109 78.2305 400.206 78.2305C402.704 78.2305 405.1 79.23 406.8 80.8329C406.8 80.8329 410.396 84.5324 409.293 87.4273C408.397 89.9262 404.801 90.7307 403.204 91.0293C400.303 91.6266 398.207 91.1268 394.013 90.1273C393.313 89.9262 392.612 89.8286 391.813 89.6275C384.92 88.0307 377.028 86.1292 368.142 86.4278C363.546 86.5314 360.749 87.2262 359.048 87.726C355.855 88.628 352.155 90.3284 348.358 92.8272C346.06 94.3265 344.165 95.8258 342.666 97.4226C340.472 99.6228 339.271 101.122 338.271 102.323C337.071 103.725 336.571 104.322 335.474 105.023C334.078 105.925 332.079 106.424 329.983 106.424C325.887 106.424 321.986 104.724 320.189 102.225C319.091 100.726 319.091 99.4217 319.091 97.6237C319.091 95.5272 319.091 92.8272 317.092 89.9262C314.399 85.928 309.2 83.3317 303.91 83.3317C303.507 83.3317 303.111 83.3317 302.806 83.3317C297.912 83.7279 293.22 86.6289 290.02 91.2304C286.924 95.7283 285.729 100.921 286.826 104.925C287.722 108.021 289.825 109.423 291.818 110.721C293.518 111.818 295.219 112.921 297.017 115.42C299.71 119.315 299.814 122.514 299.814 125.714C299.814 128.914 299.814 132.114 302.508 135.21C305.506 138.61 310.699 140.506 317.495 140.506C327.484 140.506 340.472 136.41 346.365 131.51L346.56 131.413C347.359 130.712 349.26 129.115 352.259 127.616C355.154 126.116 358.652 125.117 362.345 124.617C363.644 124.416 364.844 124.312 365.941 124.312C368.142 124.312 369.641 124.617 370.835 125.013C371.932 125.312 372.932 125.513 374.133 125.513C375.333 125.513 376.528 125.312 377.93 124.715C379.027 124.312 380.227 123.715 381.428 123.118C383.726 122.015 386.621 120.619 388.315 120.619C388.419 120.619 388.516 120.619 388.62 120.619C389.314 120.717 389.418 120.814 390.418 121.814C391.417 122.716 392.813 124.117 395.61 126.013C397.11 127.012 398.609 127.914 400.005 128.713C401.705 129.712 403.399 130.614 404.899 131.815C405.697 132.412 406.002 132.814 406.398 133.211C406.696 133.509 406.995 133.911 407.397 134.314C409.598 136.313 412.194 137.312 415.686 137.312C417.484 137.312 419.282 137.111 421.08 136.813C422.884 136.611 424.481 136.313 426.078 136.313C428.174 136.313 429.875 136.709 431.173 137.611C433.47 139.11 435.969 143.907 440.565 152.506L440.662 152.805C441.759 154.902 442.96 157.303 445.757 159.003C450.054 161.703 455.844 161.898 455.948 161.898C456.045 161.898 456.143 161.898 456.143 161.898C456.246 161.898 456.246 161.898 456.246 161.898C456.642 161.898 456.947 161.801 457.246 161.801C458.343 161.801 459.245 161.801 459.543 164.799C459.94 167.999 459.44 171.497 458.245 174.295C457.941 174.996 457.544 175.593 457.045 175.995C456.344 176.593 455.344 176.897 454.046 176.897C451.95 176.897 449.353 176.093 447.055 175.496C445.757 175.093 444.557 174.795 443.46 174.496L442.862 174.398C439.565 173.698 436.365 172.997 433.568 171.595C432.373 170.998 431.27 170.199 430.173 169.297C428.674 168.2 427.175 167.097 425.377 166.299C424.182 165.799 423.079 165.5 421.982 165.5C419.483 165.5 417.387 167 416.387 169.596C416.088 170.297 415.991 170.998 415.79 171.595C415.29 173.399 415.089 173.996 414.388 174.197C412.395 174.898 409.494 172.899 407.3 171.296C406.898 170.998 406.501 170.699 406.197 170.498C403.704 168.7 400.705 166.798 397.311 165.598C396.11 165.202 394.909 164.903 393.715 164.598C390.613 163.8 387.62 163.099 386.121 160.899C385.121 159.503 385.024 157.504 385.024 155.401C384.92 152.604 384.823 149.508 382.525 146.905C380.825 145.107 378.429 144.205 375.132 144.205C373.931 144.205 372.737 144.309 371.737 144.407H371.634C368.836 144.705 365.844 144.809 362.047 144.809C361.346 144.809 360.645 144.809 360.048 144.809C359.347 144.809 358.548 144.809 357.848 144.809C354.751 144.809 351.156 144.906 347.56 145.51C344.963 145.906 342.465 146.704 340.069 147.509C338.869 147.905 337.571 148.307 336.376 148.606C332.079 149.806 328.483 149.806 324.888 148.703C323.486 148.307 322.09 147.905 320.591 147.905C318.293 147.905 316.294 148.904 314.496 150.903C312.198 153.506 310.4 155.401 307.603 157.102C304.111 159.302 301.813 161.703 300.21 165C299.613 166.201 299.113 167.402 298.711 168.499C297.912 170.297 297.218 172.095 296.218 173.594C294.615 175.995 292.123 177.397 289.624 178.793C286.625 180.493 283.431 182.596 280.933 185.991C279.635 187.788 278.434 189.794 277.337 191.592C276.74 192.591 276.24 193.487 275.636 194.389C273.838 197.187 271.839 200.484 270.846 204.183C269.846 207.682 269.944 211.284 271.242 215.684L271.346 216.184C272.339 219.779 273.241 222.876 272.242 226.179C271.943 227.276 271.443 228.379 270.846 229.476C269.944 231.378 269.048 233.377 268.743 235.772C267.744 243.872 274.137 250.667 278.836 255.567L279.433 256.165C281.231 258.066 282.932 260.163 284.626 262.162C288.027 266.264 291.519 270.463 295.92 273.76C296.815 274.461 297.717 275.156 298.613 275.96C302.709 279.355 307.402 283.256 313.497 283.256C314.197 283.256 314.898 283.158 315.593 283.158C317.092 282.957 318.592 282.555 319.994 282.256C322.09 281.756 324.089 281.257 326.186 281.257C326.283 281.257 326.484 281.257 326.582 281.257C327.783 281.257 328.88 281.354 330.08 281.458C331.281 281.555 332.579 281.659 333.774 281.659C334.974 281.659 336.071 281.555 337.071 281.458C340.971 280.854 344.567 279.258 347.962 277.655C351.454 276.058 354.751 274.559 358.25 274.156C360.548 273.961 361.748 274.461 362.644 276.259C362.845 276.655 363.046 277.057 363.144 277.46C363.942 279.355 364.844 281.756 367.837 282.853C368.836 283.158 369.939 283.353 371.238 283.353C372.134 283.353 373.133 283.256 374.035 283.158C374.833 283.055 375.632 282.957 376.43 282.957C377.028 282.957 377.631 283.055 378.027 283.158C380.026 283.658 381.428 285.054 381.623 286.851C381.928 289.253 381.123 291.752 380.227 294.354C379.325 297.048 378.326 299.748 378.429 302.85C378.63 307.549 381.428 311.242 383.726 314.143C386.023 317.045 387.718 319.641 388.815 322.743C389.918 325.742 390.515 328.941 391.216 332.037C391.313 332.635 391.515 333.238 391.612 333.835C392.313 337.035 392.91 340.332 392.313 343.636C391.716 346.732 390.314 349.633 388.918 352.729C387.419 355.929 385.822 359.226 385.121 362.925C384.92 364.022 384.823 365.223 384.823 366.326C384.823 369.422 385.621 372.622 387.12 375.919C387.419 376.523 387.718 377.12 388.016 377.821C389.217 380.32 390.418 382.617 390.814 385.22C391.112 386.816 391.216 388.413 391.313 390.114C391.417 392.113 391.515 394.112 391.917 396.214C392.514 399.311 393.91 401.809 395.208 404.308C395.513 404.912 395.811 405.411 396.11 406.009C397.207 408.008 397.81 409.806 398.109 411.506C398.207 412.006 398.207 412.506 398.31 413.005C398.408 414.206 398.609 415.608 399.109 417.003C400.108 419.502 402.205 421.002 404.801 421.002C405.898 421.002 407.099 420.703 408.397 420.203C409.896 419.502 411.395 418.704 412.791 418.003C414.492 417.003 416.186 416.205 417.886 415.504C420.184 414.608 422.579 413.609 424.981 412.408C422.281 415.705 419.184 418.606 416.088 421.501ZM474.926 338.632C475.524 334.238 475.225 329.636 474.823 324.84C473.829 313.546 476.127 308.049 478.023 303.648C481.32 295.75 487.414 289.551 489.609 287.254C486.714 305.044 481.82 322.243 474.926 338.632Z" fill="#1A1A1A"/>
</g>
<path d="M492.705 249.869C492.705 250.466 492.705 251.07 492.705 251.764C492.705 252.569 492.705 253.367 492.705 254.166C492.705 254.964 492.705 255.665 492.705 256.463C492.705 257.865 492.607 259.163 492.607 260.565V260.663C492.51 261.961 492.51 263.265 492.406 264.661V264.764C492.205 268.659 491.809 272.761 491.309 276.759C490.907 280.355 490.407 283.956 489.81 287.552C488.31 296.451 486.415 305.148 483.916 313.741C481.417 322.341 478.522 330.739 475.128 338.937C473.129 343.63 471.032 348.329 468.734 352.826C465.138 360.024 461.14 367.021 456.844 373.92C445.654 391.515 432.069 407.605 416.29 421.806C406.099 430.997 395.013 439.298 383.323 446.496C371.536 453.791 359.048 459.989 346.262 464.987C319.591 475.384 291.422 480.681 262.551 480.681C235.18 480.681 208.412 475.884 182.936 466.584C158.362 457.49 135.587 444.393 115.407 427.602L115.011 427.303C113.81 426.304 112.713 425.304 111.513 424.305C117.906 427.303 124.5 429.997 131.192 432.496C159.362 442.894 189.031 448.196 219.401 448.196C251.361 448.196 282.633 442.296 312.198 430.802C326.387 425.201 340.271 418.302 353.258 410.305C366.142 402.309 378.429 393.112 389.717 383.019C407.196 367.326 422.281 349.432 434.671 330.038C439.462 322.542 443.856 314.741 447.854 306.745C450.353 301.649 452.748 296.548 454.948 291.349C458.745 282.256 462.036 272.962 464.736 263.46C467.436 253.965 469.63 244.268 471.227 234.474C471.928 230.573 472.428 226.575 472.927 222.577C473.427 218.183 473.829 213.679 474.128 209.284V209.181C474.226 207.682 474.323 206.182 474.323 204.787V204.683C474.427 203.184 474.427 201.684 474.524 200.185C474.524 199.387 474.524 198.485 474.628 197.686C474.628 196.79 474.628 195.888 474.628 195.09C474.628 194.389 474.628 193.688 474.628 192.987C474.628 189.989 474.524 186.893 474.427 183.894C474.427 183.193 474.427 182.492 474.323 181.791V181.694C474.323 180.993 474.226 180.194 474.226 179.494V179.292C473.726 170.4 472.83 161.6 471.532 153.006C477.121 165.098 481.716 177.592 485.214 190.488L485.415 191.189C485.812 192.689 486.214 194.188 486.61 195.791L486.714 196.388C488.012 201.788 489.109 207.285 490.011 212.783L490.108 213.179C491.407 221.376 492.309 229.677 492.808 238.07V238.271C492.808 238.874 492.906 239.569 492.906 240.27V240.373C492.906 240.971 493.003 241.568 493.003 242.269C492.607 244.372 492.705 247.071 492.705 249.869Z" fill="black" fill-opacity="0.05"/>
<mask id="mask1_1_2" style="mask-type:luminance" maskUnits="userSpaceOnUse" x="0" y="46" width="469" height="301">
<path d="M0.333374 46.8915H468.015V346.457H0.333374V46.8915Z" fill="white"/>
</mask>
<g mask="url(#mask1_1_2)">
<path d="M44.1846 345.732C41.8869 345.732 39.5892 345.635 37.3951 345.531C35.3961 345.434 33.8968 343.63 33.9943 341.63C34.0979 339.631 35.8959 338.132 37.8949 338.236C39.8879 338.333 41.9905 338.437 44.1846 338.437C45.6839 338.437 47.2807 338.437 48.8775 338.333C50.8766 338.236 52.577 339.833 52.6745 341.832C52.7781 343.831 51.1752 345.531 49.1823 345.635C47.4819 345.732 45.7814 345.732 44.1846 345.732ZM60.2685 344.83C58.4706 344.83 56.8738 343.434 56.6726 341.63C56.4715 339.631 57.8733 337.833 59.8662 337.632C63.3646 337.236 67.058 336.736 70.855 336.133C72.854 335.834 74.7556 337.133 75.0542 339.132C75.3528 341.131 74.0547 342.935 72.0556 343.331C68.1611 343.934 64.2666 344.532 60.6647 344.934C60.5671 344.83 60.4696 344.83 60.2685 344.83ZM26.5039 344.032C26.2053 344.032 26.0042 344.032 25.7055 343.934C21.3113 342.935 17.4168 341.533 14.1195 339.735C12.3216 338.735 11.7182 336.535 12.7178 334.835C13.7173 333.037 15.9175 332.44 17.6118 333.439C20.3117 334.938 23.5054 336.133 27.3024 336.938C29.3014 337.334 30.5021 339.333 30.0023 341.234C29.6 342.831 28.1008 344.032 26.5039 344.032ZM82.6421 341.131C80.9478 341.131 79.4485 339.936 79.0462 338.236C78.6501 336.237 79.8446 334.335 81.8437 333.939C85.342 333.238 89.0354 332.336 92.7349 331.434C94.6303 330.934 96.6294 332.135 97.1291 334.134C97.6289 336.036 96.4283 338.035 94.4292 338.534C90.6383 339.436 86.8413 340.332 83.2455 341.033C83.1418 341.131 82.9468 341.131 82.6421 341.131ZM104.723 335.737C103.12 335.737 101.621 334.634 101.225 333.037C100.725 331.135 101.822 329.136 103.724 328.539C107.216 327.54 110.915 326.54 114.511 325.339C116.407 324.742 118.503 325.839 119.003 327.741C119.606 329.636 118.503 331.739 116.608 332.239C112.914 333.336 109.215 334.439 105.619 335.438C105.32 335.737 105.022 335.737 104.723 335.737ZM7.5251 332.635C6.32445 332.635 5.22741 332.037 4.52652 331.038C4.22788 330.636 4.02675 330.239 3.72811 329.837C1.83267 326.54 0.729529 322.743 0.43089 318.641C0.333375 316.642 1.83267 314.942 3.82563 314.741C5.82468 314.643 7.5251 316.142 7.72623 318.142C7.92126 321.14 8.72575 323.84 10.0239 326.138C10.219 326.436 10.3226 326.741 10.5237 327.04C11.6207 328.74 11.121 330.934 9.52416 332.037C8.82327 332.44 8.12238 332.635 7.5251 332.635ZM126.396 329.136C124.897 329.136 123.501 328.137 123.001 326.638C122.404 324.742 123.403 322.639 125.299 322.042C128.797 320.841 132.393 319.641 135.989 318.343C137.884 317.642 139.981 318.641 140.584 320.543C141.279 322.438 140.286 324.541 138.384 325.138C134.788 326.436 131.095 327.637 127.596 328.838C127.097 329.039 126.694 329.136 126.396 329.136ZM147.776 321.542C146.277 321.542 144.875 320.64 144.381 319.141C143.68 317.24 144.576 315.143 146.478 314.442C149.97 313.144 153.468 311.742 156.967 310.346C158.862 309.646 160.959 310.548 161.66 312.345C162.361 314.241 161.459 316.344 159.661 317.044C156.065 318.44 152.572 319.842 149.074 321.14C148.574 321.439 148.172 321.542 147.776 321.542ZM168.851 313.241C167.456 313.241 166.054 312.443 165.457 311.047C164.658 309.146 165.554 307.043 167.456 306.348C170.85 304.947 174.349 303.447 177.841 301.948C179.639 301.15 181.839 301.948 182.638 303.849C183.436 305.647 182.638 307.848 180.742 308.646C177.244 310.145 173.745 311.645 170.253 313.144C169.753 313.144 169.254 313.241 168.851 313.241ZM5.22741 310.846C4.92877 310.846 4.63013 310.846 4.32539 310.743C2.42995 310.243 1.22929 308.244 1.72906 306.348C2.63107 302.85 4.02675 299.047 5.82468 295.152C6.62309 293.348 8.82327 292.55 10.6212 293.348C12.4191 294.153 13.2175 296.353 12.4191 298.151C10.8223 301.649 9.52416 305.044 8.72575 308.146C8.32351 309.743 6.82421 310.846 5.22741 310.846ZM210.106 294.549C208.808 294.549 207.51 293.751 206.809 292.452C205.913 290.655 206.712 288.454 208.509 287.552C211.904 285.956 215.305 284.255 218.596 282.555C220.394 281.659 222.594 282.354 223.496 284.158C224.392 285.956 223.691 288.156 221.893 289.052C218.499 290.752 215.104 292.452 211.709 294.049C211.209 294.451 210.71 294.549 210.106 294.549ZM14.4182 290.155C13.8148 290.155 13.12 289.954 12.5166 289.655C10.8223 288.655 10.219 286.352 11.3221 284.657C13.2175 281.555 15.3141 278.258 17.7154 274.961C18.91 273.358 21.1102 272.962 22.8106 274.059C24.4074 275.259 24.8035 277.46 23.7065 279.154C21.4088 282.354 19.4097 285.456 17.6118 288.351C16.917 289.551 15.7164 290.155 14.4182 290.155ZM230.389 284.456C229.085 284.456 227.787 283.755 227.19 282.457C226.294 280.653 226.989 278.459 228.787 277.557C232.084 275.857 235.478 274.059 238.776 272.358C240.574 271.462 242.774 272.06 243.67 273.858C244.572 275.655 243.974 277.856 242.177 278.758C238.879 280.556 235.478 282.354 232.084 284.054C231.584 284.255 230.987 284.456 230.389 284.456ZM250.465 273.76C249.167 273.76 247.966 273.059 247.266 271.859C246.272 270.061 246.967 267.86 248.667 266.958C251.965 265.16 255.262 263.363 258.559 261.461C260.253 260.461 262.551 261.065 263.453 262.863C264.349 264.661 263.849 266.861 262.051 267.763C258.754 269.658 255.359 271.462 252.062 273.26C251.666 273.656 251.063 273.76 250.465 273.76ZM27.5035 271.657C26.7051 271.657 25.9067 271.359 25.2058 270.859C23.609 269.561 23.4078 267.361 24.6085 265.764C26.9062 262.863 29.3989 259.962 31.9953 256.963C33.2995 255.464 35.5972 255.263 37.0904 256.664C38.5897 257.963 38.7908 260.266 37.3951 261.766C34.8963 264.661 32.3975 267.562 30.1973 270.359C29.6 271.158 28.6005 271.657 27.5035 271.657ZM270.243 262.662C268.944 262.662 267.744 261.961 267.146 260.864C266.147 259.163 266.75 256.866 268.445 255.866C271.742 253.965 274.942 252.069 278.233 250.168C279.933 249.168 282.231 249.668 283.23 251.466C284.23 253.166 283.73 255.464 281.932 256.463C278.732 258.365 275.338 260.364 272.144 262.265C271.443 262.46 270.846 262.662 270.243 262.662ZM289.721 251.07C288.527 251.07 287.326 250.466 286.625 249.369C285.626 247.669 286.125 245.469 287.826 244.371C291.019 242.372 294.219 240.373 297.413 238.472C299.113 237.375 301.313 237.875 302.41 239.569C303.507 241.269 303.008 243.469 301.313 244.573C298.114 246.572 294.816 248.571 291.623 250.57C291.019 250.868 290.325 251.07 289.721 251.07ZM308.901 239.069C307.707 239.069 306.506 238.472 305.805 237.375C304.708 235.674 305.208 233.474 306.902 232.377C310.102 230.372 313.295 228.275 316.398 226.179C318.092 225.076 320.292 225.575 321.389 227.178C322.486 228.775 321.986 231.073 320.39 232.176C317.294 234.273 314.1 236.375 310.9 238.374C310.303 238.874 309.602 239.069 308.901 239.069ZM346.365 213.484C345.262 213.484 344.165 212.984 343.464 211.984C342.27 210.381 342.666 208.084 344.262 206.883C347.359 204.683 350.357 202.385 353.356 200.185C354.953 198.984 357.25 199.289 358.451 200.886C359.645 202.483 359.347 204.787 357.75 205.987C354.751 208.181 351.655 210.485 348.559 212.679C347.858 213.282 347.164 213.484 346.365 213.484ZM364.546 199.886C363.442 199.886 362.345 199.387 361.645 198.485C360.45 196.888 360.749 194.59 362.345 193.389C365.344 191.092 368.336 188.788 371.238 186.393C372.834 185.192 375.132 185.393 376.333 186.99C377.527 188.593 377.332 190.891 375.729 192.091C372.834 194.389 369.738 196.79 366.74 199.088C366.142 199.685 365.344 199.886 364.546 199.886ZM382.324 185.789C381.324 185.789 380.227 185.29 379.526 184.491C378.228 182.992 378.429 180.694 380.026 179.396C382.921 176.995 385.822 174.496 388.62 172.095C390.119 170.796 392.41 170.998 393.715 172.497C395.013 173.996 394.812 176.294 393.312 177.592C390.515 179.993 387.516 182.492 384.621 184.893C383.921 185.491 383.122 185.789 382.324 185.789ZM399.505 170.998C398.505 170.998 397.506 170.595 396.811 169.797C395.513 168.298 395.61 166 397.109 164.702C399.907 162.203 402.704 159.601 405.398 157.102C406.898 155.706 409.195 155.804 410.493 157.303C411.792 158.802 411.792 161.1 410.292 162.398C407.598 164.897 404.697 167.499 401.906 170.096C401.205 170.699 400.407 170.998 399.505 170.998ZM416.088 155.505C415.186 155.505 414.193 155.103 413.492 154.402C412.09 153.006 412.09 150.702 413.492 149.307C416.186 146.607 418.886 143.907 421.385 141.31C422.78 139.811 425.078 139.811 426.48 141.207C427.973 142.609 427.973 144.906 426.577 146.308C423.981 149.008 421.281 151.702 418.587 154.505C417.886 155.103 416.984 155.505 416.088 155.505ZM431.672 139.007C430.77 139.007 429.972 138.708 429.271 138.111C427.778 136.812 427.674 134.509 428.972 133.009C431.569 130.114 433.97 127.311 436.164 124.513C437.462 122.917 439.76 122.715 441.259 124.014C442.862 125.312 443.057 127.616 441.759 129.115C439.461 132.01 436.969 134.911 434.366 137.91C433.671 138.61 432.672 139.007 431.672 139.007ZM445.958 121.417C445.257 121.417 444.459 121.216 443.856 120.716C442.259 119.516 441.863 117.316 443.057 115.615C445.355 112.519 447.458 109.423 449.256 106.424C450.353 104.724 452.547 104.224 454.247 105.224C455.948 106.321 456.447 108.521 455.448 110.221C453.546 113.317 451.352 116.615 448.951 119.814C448.152 120.918 447.055 121.417 445.958 121.417ZM457.642 102.024C457.142 102.024 456.545 101.92 456.045 101.622C454.247 100.726 453.449 98.6232 454.345 96.8253C456.045 93.3269 457.343 89.9261 458.245 86.83C458.745 84.9284 460.842 83.7278 462.737 84.3312C464.639 84.9284 465.833 86.9275 465.236 88.829C464.236 92.3274 462.841 96.1244 460.939 99.9214C460.342 101.323 459.044 102.024 457.642 102.024ZM463.34 80.333C461.341 80.333 459.745 78.7301 459.745 76.7311C459.641 73.3363 458.843 70.2342 457.343 67.6378C457.045 67.0344 456.642 66.4372 456.246 65.9374C455.046 64.3345 455.344 62.0368 456.947 60.8362C458.544 59.6416 460.842 59.9402 462.036 61.537C462.64 62.3354 463.139 63.1399 463.639 63.9383C465.736 67.6378 466.936 71.8371 467.034 76.53C467.034 78.6326 465.437 80.333 463.34 80.333C463.438 80.333 463.438 80.333 463.34 80.333ZM450.353 60.44C449.853 60.44 449.256 60.3364 448.756 60.0377C445.958 58.6421 442.661 57.5389 438.962 56.838C436.969 56.4419 435.768 54.5403 436.164 52.5413C436.566 50.5422 438.462 49.3416 440.461 49.7438C444.855 50.6397 448.756 51.944 452.047 53.6383C453.845 54.5403 454.546 56.7405 453.65 58.5385C452.949 59.6416 451.748 60.44 450.353 60.44ZM394.611 58.0387C392.91 58.0387 391.313 56.7405 391.015 55.0401C390.716 53.041 392.014 51.1395 394.013 50.8409C397.908 50.14 401.802 49.6402 405.398 49.2441C407.397 49.0429 409.195 50.4447 409.396 52.4438C409.597 54.4428 408.196 56.2408 406.197 56.4419C402.704 56.838 399.005 57.3378 395.208 58.0387C395.013 58.0387 394.812 58.0387 394.611 58.0387ZM417.088 55.5399C415.186 55.5399 413.589 54.0406 413.492 52.0415C413.388 50.0425 414.991 48.342 416.99 48.2445C421.08 48.0434 425.078 48.0434 428.674 48.2445C430.673 48.342 432.172 50.0425 432.069 52.0415C431.971 54.0406 430.271 55.5399 428.278 55.4424C424.877 55.2412 421.183 55.2412 417.289 55.4424C417.185 55.5399 417.185 55.5399 417.088 55.5399Z" fill="#1A1A1A"/>
</g>
<path d="M268.146 233.773L206.212 266.66L266.049 230.177L268.146 233.773Z" fill="#1A1A1A"/>
<path d="M290.325 272.657L228.39 305.544L288.222 269.061L290.325 272.657Z" fill="#1A1A1A"/>
<path d="M290.02 296.152L228.092 329.136L287.923 292.55L290.02 296.152Z" fill="#1A1A1A"/>
<path d="M246.967 220.681L185.033 253.568L244.87 216.982L246.967 220.681Z" fill="#1A1A1A"/>
<path d="M211.106 328.039C214.805 325.839 216.798 321.744 216.402 317.544L214.403 295.75C227.287 291.051 239.775 285.352 251.666 278.654L268.847 268.964L282.03 286.656L303.111 342.532C305.208 340.332 306.305 337.334 306.006 334.238L305.208 326.936L301.411 291.953L300.71 285.657L308.603 280.958L310.803 279.654C312.4 278.654 312.997 276.558 311.997 274.961L310.498 272.462C309.505 270.859 307.402 270.262 305.805 271.261L299.515 274.961L299.211 271.962L297.114 252.965C305.506 247.967 313.399 242.269 320.688 235.875C324.388 232.676 327.88 229.275 331.281 225.679C331.878 225.076 332.28 224.277 332.378 223.375C332.475 222.577 332.378 221.681 331.878 220.98C331.476 220.182 330.781 219.682 330.08 219.377C329.282 219.079 328.483 218.981 327.581 219.182C322.791 220.182 318.092 221.48 313.399 222.979C310.602 223.875 307.707 224.875 304.909 225.874C298.516 228.275 292.22 231.176 286.229 234.376L270.346 222.876L267.847 221.078L274.137 217.482C275.838 216.58 276.435 214.38 275.441 212.783L274.04 210.284C273.144 208.584 270.943 207.986 269.347 208.986L267.147 210.284L259.156 214.782L254.061 211.082L225.69 190.287L219.797 185.893C217.298 184.095 214.104 183.492 211.209 184.29L249.064 230.476L257.755 250.57L241.177 259.962C229.286 266.66 217.901 274.357 207.211 282.853L189.531 269.762C186.136 267.263 181.541 266.861 177.841 268.86L197.222 293.251C195.223 295.951 193.724 298.248 194.126 298.852C194.327 299.248 197.125 299.047 200.318 298.651L211.106 328.039Z" fill="#FECE3E"/>
<path d="M303.111 346.134C302.91 346.134 302.611 346.134 302.41 346.031C301.21 345.83 300.314 344.934 299.814 343.831L278.934 288.351L267.945 273.461L253.464 281.653C242.177 288.052 230.286 293.549 218.2 298.047L219.9 317.142C220.394 322.639 217.603 328.137 212.904 330.934C212.008 331.434 210.905 331.538 209.911 331.239C208.912 330.934 208.107 330.136 207.809 329.136L197.923 302.35C194.224 302.746 192.127 302.545 191.03 300.449C190.03 298.651 190.427 296.749 192.828 293.251L175.147 270.859C174.544 270.061 174.245 268.957 174.446 267.958C174.647 266.958 175.342 266.062 176.244 265.563C181.138 262.96 187.233 263.46 191.725 266.763L207.211 278.258C217.402 270.262 228.189 263.064 239.477 256.664L253.36 248.869L246.071 232.072L208.509 186.289C207.711 185.393 207.51 184.095 207.912 182.992C208.308 181.895 209.21 180.993 210.307 180.694C214.306 179.695 218.499 180.493 221.796 182.894L259.357 210.381L265.349 206.987C265.349 206.987 265.349 206.987 265.446 206.987L267.646 205.786C270.943 203.885 275.24 205.085 277.136 208.486L278.537 210.985C279.433 212.582 279.634 214.483 279.135 216.281C278.635 218.079 277.434 219.578 275.837 220.48L274.241 221.376L286.424 230.378C292.019 227.477 297.717 224.875 303.611 222.681C306.506 221.577 309.401 220.578 312.198 219.682C316.995 218.183 321.791 216.878 326.685 215.781C328.282 215.483 329.879 215.58 331.378 216.281C332.878 216.878 334.078 217.982 334.877 219.377C335.675 220.779 335.974 222.376 335.773 223.979C335.571 225.575 334.877 226.977 333.774 228.178C330.379 231.774 326.685 235.272 322.986 238.569C316.093 244.573 308.603 250.07 300.813 254.867L302.41 269.262L304.007 268.36C305.604 267.458 307.505 267.16 309.303 267.562C311.101 268.062 312.601 269.159 313.6 270.761L315.093 273.26C315.995 274.857 316.294 276.759 315.898 278.557C315.496 280.355 314.295 281.854 312.698 282.853L310.498 284.158C310.498 284.158 310.4 284.158 310.4 284.255L304.507 287.753L309.505 334.134C310.004 338.236 308.505 342.331 305.708 345.232C304.909 345.83 304.007 346.134 303.111 346.134ZM268.944 265.563C270.041 265.563 271.041 266.062 271.742 266.958L284.931 284.657C285.126 284.956 285.229 285.157 285.431 285.553L302.008 329.636L297.315 286.254C297.218 284.852 297.815 283.554 299.016 282.853L306.805 278.258C306.805 278.258 306.902 278.258 306.902 278.154L309.102 276.856L307.603 274.461L301.411 278.154C300.411 278.758 299.113 278.855 298.114 278.258C297.017 277.758 296.316 276.655 296.218 275.46L293.817 253.465C293.719 252.069 294.317 250.765 295.517 250.07C303.708 245.267 311.497 239.569 318.592 233.377C322.188 230.274 325.686 226.874 328.983 223.479C329.081 223.375 329.178 223.278 329.178 223.18C329.178 223.077 329.178 222.979 329.178 222.979C329.178 222.876 329.081 222.876 328.983 222.778C328.88 222.778 328.782 222.681 328.581 222.778C323.888 223.778 319.293 225.076 314.697 226.478C311.997 227.373 309.2 228.275 306.408 229.372C300.21 231.774 294.018 234.571 288.124 237.771C286.924 238.374 285.528 238.271 284.431 237.472L266.049 223.979C265.05 223.278 264.55 222.181 264.648 220.98C264.751 219.779 265.349 218.682 266.446 218.183L272.741 214.581L271.346 212.082L269.146 213.38C269.146 213.38 269.146 213.38 269.048 213.38L261.155 217.78C259.955 218.481 258.455 218.378 257.358 217.579L222.095 191.787L251.965 228.178C252.166 228.477 252.361 228.678 252.464 228.976L261.155 249.07C261.85 250.667 261.253 252.666 259.656 253.465L243.072 262.863C231.383 269.463 220.095 277.057 209.607 285.456C208.412 286.455 206.614 286.455 205.316 285.553L187.635 272.462C186.636 271.761 185.435 271.261 184.234 271.06L200.02 290.953C200.916 292.154 201.019 293.751 200.221 295.049C201.72 294.951 203.116 295.951 203.615 297.353L212.508 321.341C213.007 320.244 213.202 319.044 213.105 317.739L211.106 295.951C211.008 294.354 211.904 292.849 213.404 292.349C226.093 287.753 238.38 282.055 250.167 275.46L267.348 265.764C267.744 265.66 268.347 265.563 268.944 265.563Z" fill="#1A1A1A"/>
<path d="M427.674 312.547C426.675 312.547 425.675 311.943 425.176 311.047L412.194 286.955C411.493 285.657 410.597 283.956 409.598 282.256C407.8 279.154 406.8 275.558 406.8 271.859C406.8 260.364 416.088 251.07 427.577 251.07C433.172 251.07 438.364 253.264 442.259 257.164C446.153 261.065 448.354 266.361 448.354 271.859C448.354 275.461 447.458 278.959 445.654 282.159C444.959 283.457 444.16 284.755 443.46 286.053L429.972 311.047C429.576 312.047 428.674 312.547 427.674 312.547ZM427.674 263.765C423.481 263.765 420.086 267.16 420.086 271.359C420.086 275.558 423.481 278.959 427.674 278.959C431.874 278.959 435.268 275.558 435.268 271.359C435.268 267.16 431.77 263.765 427.674 263.765Z" fill="#FF755F"/>
<path d="M427.674 253.867C437.664 253.867 445.757 261.961 445.654 271.962C445.654 275.156 444.758 278.258 443.258 280.854C442.558 282.159 441.759 283.457 441.064 284.852L427.577 309.847L414.589 285.754C413.693 284.158 412.889 282.555 411.895 280.958C410.396 278.356 409.494 275.259 409.494 271.962C409.598 261.961 417.685 253.867 427.674 253.867ZM427.674 281.756C433.367 281.756 438.066 277.155 438.066 271.359C438.066 265.563 433.47 260.961 427.674 260.961C421.982 260.961 417.289 265.563 417.289 271.359C417.289 277.155 421.884 281.756 427.674 281.756ZM427.674 248.266C414.693 248.266 404.1 258.865 404.1 271.859C404.1 275.96 405.197 280.056 407.196 283.658C408.196 285.352 409.098 287.053 409.793 288.351L422.78 312.443C423.78 314.241 425.675 315.344 427.674 315.344C429.673 315.344 431.569 314.241 432.568 312.443L446.056 287.455C446.757 286.254 447.354 285.054 448.153 283.658C450.152 280.153 451.249 276.058 451.249 272.06C451.249 265.764 448.853 259.767 444.356 255.366C439.864 250.765 433.97 248.266 427.674 248.266ZM427.674 276.155C425.078 276.155 422.884 273.961 422.884 271.359C422.884 268.762 425.078 266.562 427.674 266.562C430.271 266.562 432.471 268.762 432.471 271.359C432.471 273.961 430.271 276.155 427.674 276.155Z" fill="#1A1A1A"/>
<path d="M85.0434 283.457C84.0439 283.457 83.1419 282.957 82.6421 282.055L70.1602 258.865C69.4593 257.567 68.5573 255.964 67.6614 254.263C65.961 251.265 64.9614 247.766 64.9614 244.268C64.9614 233.176 73.9511 224.18 85.0434 224.18C90.4372 224.18 95.4288 226.276 99.2257 230.073C103.023 233.877 105.119 238.972 105.119 244.268C105.119 247.766 104.223 251.167 102.523 254.166C101.822 255.366 101.127 256.665 100.426 257.963L87.4386 282.055C86.9389 282.957 85.9393 283.457 85.0434 283.457ZM85.0434 236.473C81.0453 236.473 77.7481 239.77 77.7481 243.768C77.7481 247.766 81.0453 251.07 85.0434 251.07C89.0354 251.07 92.3327 247.766 92.3327 243.768C92.3327 239.77 89.0354 236.473 85.0434 236.473Z" fill="#FF755F"/>
<path d="M85.0434 226.874C94.6303 226.874 102.425 234.675 102.425 244.268C102.425 247.37 101.621 250.265 100.128 252.867C99.4269 254.166 98.726 255.366 98.0251 256.664L85.0434 280.757L72.5554 257.566C71.757 255.964 70.855 254.464 69.9591 252.965C68.4598 250.369 67.6614 247.468 67.6614 244.268C67.6614 234.675 75.3529 226.874 85.0434 226.874ZM85.0434 253.763C90.5347 253.763 95.0326 249.266 95.0326 243.768C95.0326 238.271 90.5347 233.773 85.0434 233.773C79.546 233.773 75.0542 238.271 75.0542 243.768C74.9506 249.266 79.4485 253.763 85.0434 253.763ZM85.0434 221.48C72.4579 221.48 62.2676 231.676 62.2676 244.268C62.2676 248.266 63.2671 252.167 65.2601 255.665C66.1621 257.268 67.058 258.865 67.7589 260.163L80.2469 283.353C81.1428 285.054 83.0444 286.157 84.9398 286.157C86.8413 286.157 88.7368 285.054 89.6388 283.353L102.62 259.267C103.321 257.963 104.022 256.768 104.723 255.567C106.619 252.167 107.716 248.266 107.716 244.371C107.716 238.271 105.32 232.572 101.024 228.275C96.8305 223.875 91.0345 221.48 85.0434 221.48ZM85.0434 248.37C82.4471 248.37 80.448 246.267 80.448 243.768C80.448 241.269 82.5446 239.173 85.0434 239.173C87.5361 239.173 89.6388 241.269 89.6388 243.768C89.6388 246.267 87.5361 248.37 85.0434 248.37Z" fill="#1A1A1A"/>
<path d="M305.805 102.42C304.806 102.42 304.007 101.92 303.507 101.025L291.519 78.6327C290.824 77.432 290.02 75.8352 289.124 74.2323C287.424 71.3373 286.528 67.9365 286.528 64.6393C286.528 53.9431 295.219 45.3435 305.805 45.3435C310.998 45.3435 315.794 47.3426 319.494 51.042C323.187 54.7415 325.186 59.538 325.186 64.7368C325.186 68.034 324.284 71.3373 322.687 74.2323C321.986 75.433 321.292 76.6336 320.688 77.8343L308.206 101.025C307.603 101.92 306.707 102.42 305.805 102.42ZM305.805 57.1428C301.911 57.1428 298.814 60.3364 298.814 64.1395C298.814 67.9365 302.008 71.1362 305.805 71.1362C309.602 71.1362 312.796 67.9365 312.796 64.1395C312.796 60.3364 309.602 57.1428 305.805 57.1428Z" fill="#FF755F"/>
<path d="M305.805 47.9459C315.093 47.9459 322.59 55.4424 322.486 64.7368C322.486 67.7353 321.688 70.5328 320.292 72.9341C319.591 74.1348 318.89 75.3354 318.196 76.6336L305.708 99.8238L293.719 77.432C292.921 75.9327 292.123 74.4334 291.221 72.9341C289.825 70.4353 289.026 67.6378 289.026 64.6392C289.026 55.4424 296.517 47.9459 305.805 47.9459ZM305.805 73.8361C311.101 73.8361 315.398 69.5333 315.398 64.237C315.398 58.9407 311.101 54.644 305.805 54.644C300.509 54.644 296.218 58.9407 296.218 64.237C296.115 69.5333 300.411 73.8361 305.805 73.8361ZM305.805 42.7471C293.719 42.7471 283.931 52.5413 283.931 64.6392C283.931 68.4362 284.931 72.2332 286.826 75.5304C287.728 77.0297 288.624 78.6326 289.221 79.8333L301.21 102.225C302.112 103.919 303.91 104.925 305.805 104.925C307.707 104.925 309.505 103.919 310.4 102.225L322.888 79.0288C323.486 77.9317 324.089 76.8347 324.888 75.4329C326.783 72.1357 327.783 68.4362 327.783 64.6392C327.783 58.7396 325.485 53.2422 321.389 49.1405C317.092 45.0448 311.601 42.7471 305.805 42.7471ZM305.805 68.6373C303.306 68.6373 301.313 66.6383 301.313 64.1395C301.313 61.6407 303.306 59.6416 305.805 59.6416C308.304 59.6416 310.303 61.6407 310.303 64.1395C310.303 66.6383 308.206 68.6373 305.805 68.6373Z" fill="#1A1A1A"/>
</g>
<defs>
<clipPath id="clip0_1_2">
<rect width="500" height="500" fill="white"/>
</clipPath>
</defs>
</svg>
